<svg xmlns="http://www.w3.org/2000/svg" viewBox="0 0 32 32" shape-rendering="crispEdges"><rect x="0" y="0" width="1" height="1" fill="#7a6018"/><rect x="1" y="0" width="1" height="1" fill="#7d1818"/><rect x="2" y="0" width="1" height="1" fill="#7a6018"/><rect x="3" y="0" width="4" height="1" fill="#374151"/><rect x="7" y="0" width="1" height="1" fill="#9ca3af"/><rect x="8" y="0" width="1" height="1" fill="#e5e7eb"/><rect x="9" y="0" width="1" height="1" fill="#9ca3af"/><rect x="10" y="0" width="2" height="1" fill="#e5e7eb"/><rect x="12" y="0" width="1" height="1" fill="#9ca3af"/><rect x="13" y="0" width="7" height="1" fill="#b92828"/><rect x="20" y="0" width="2" height="1" fill="#7a6018"/><rect x="22" y="0" width="1" height="1" fill="#374151"/><rect x="23" y="0" width="2" height="1" fill="#6b7280"/><rect x="25" y="0" width="1" height="1" fill="#374151"/><rect x="26" y="0" width="3" height="1" fill="#7a6018"/><rect x="29" y="0" width="3" height="1" fill="#b92828"/><rect x="0" y="1" width="1" height="1" fill="#b92828"/><rect x="1" y="1" width="2" height="1" fill="#7a6018"/><rect x="3" y="1" width="1" height="1" fill="#374151"/><rect x="4" y="1" width="2" height="1" fill="#6b7280"/><rect x="6" y="1" width="1" height="1" fill="#d1e1f7"/><rect x="7" y="1" width="2" height="1" fill="#ffffff"/><rect x="9" y="1" width="1" height="1" fill="#d1e1f7"/><rect x="10" y="1" width="1" height="1" fill="#e5e7eb"/><rect x="11" y="1" width="2" height="1" fill="#ffffff"/><rect x="13" y="1" width="1" height="1" fill="#e5e7eb"/><rect x="14" y="1" width="1" height="1" fill="#6b7280"/><rect x="15" y="1" width="1" height="1" fill="#7a6018"/><rect x="16" y="1" width="7" height="1" fill="#6b7280"/><rect x="23" y="1" width="1" height="1" fill="#9ca3af"/><rect x="24" y="1" width="1" height="1" fill="#6b7280"/><rect x="25" y="1" width="1" height="1" fill="#9ca3af"/><rect x="26" y="1" width="6" height="1" fill="#6b7280"/><rect x="0" y="2" width="2" height="1" fill="#6b7280"/><rect x="2" y="2" width="1" height="1" fill="#9ca3af"/><rect x="3" y="2" width="3" height="1" fill="#6b7280"/><rect x="6" y="2" width="2" height="1" fill="#ffffff"/><rect x="8" y="2" width="1" height="1" fill="#d1e1f7"/><rect x="9" y="2" width="1" height="1" fill="#8ca7cc"/><rect x="10" y="2" width="1" height="1" fill="#d1e1f7"/><rect x="11" y="2" width="1" height="1" fill="#9ca3af"/><rect x="12" y="2" width="2" height="1" fill="#ffffff"/><rect x="14" y="2" width="1" height="1" fill="#9ca3af"/><rect x="15" y="2" width="1" height="1" fill="#6b7280"/><rect x="16" y="2" width="2" height="1" fill="#eb4d4d"/><rect x="18" y="2" width="3" height="1" fill="#6b7280"/><rect x="21" y="2" width="1" height="1" fill="#9ca3af"/><rect x="22" y="2" width="1" height="1" fill="#f88989"/><rect x="23" y="2" width="1" height="1" fill="#9ca3af"/><rect x="24" y="2" width="1" height="1" fill="#6b7280"/><rect x="25" y="2" width="1" height="1" fill="#fae178"/><rect x="26" y="2" width="1" height="1" fill="#9ca3af"/><rect x="27" y="2" width="5" height="1" fill="#6b7280"/><rect x="0" y="3" width="1" height="1" fill="#9ca3af"/><rect x="1" y="3" width="1" height="1" fill="#f88989"/><rect x="2" y="3" width="1" height="1" fill="#fae178"/><rect x="3" y="3" width="1" height="1" fill="#9ca3af"/><rect x="4" y="3" width="1" height="1" fill="#6b7280"/><rect x="5" y="3" width="1" height="1" fill="#9ca3af"/><rect x="6" y="3" width="1" height="1" fill="#ffffff"/><rect x="7" y="3" width="1" height="1" fill="#d1e1f7"/><rect x="8" y="3" width="1" height="1" fill="#9ca3af"/><rect x="9" y="3" width="4" height="1" fill="#e5e7eb"/><rect x="13" y="3" width="1" height="1" fill="#ffffff"/><rect x="14" y="3" width="1" height="1" fill="#d1e1f7"/><rect x="15" y="3" width="4" height="1" fill="#6b7280"/><rect x="19" y="3" width="1" height="1" fill="#9ca3af"/><rect x="20" y="3" width="1" height="1" fill="#f88989"/><rect x="21" y="3" width="3" height="1" fill="#fae178"/><rect x="24" y="3" width="1" height="1" fill="#9ca3af"/><rect x="25" y="3" width="3" height="1" fill="#fae178"/><rect x="28" y="3" width="1" height="1" fill="#9ca3af"/><rect x="29" y="3" width="1" height="1" fill="#6b7280"/><rect x="30" y="3" width="1" height="1" fill="#9ca3af"/><rect x="31" y="3" width="1" height="1" fill="#6b7280"/><rect x="0" y="4" width="3" height="1" fill="#fae178"/><rect x="3" y="4" width="1" height="1" fill="#9ca3af"/><rect x="4" y="4" width="1" height="1" fill="#6b7280"/><rect x="5" y="4" width="1" height="1" fill="#d1e1f7"/><rect x="6" y="4" width="1" height="1" fill="#ffffff"/><rect x="7" y="4" width="1" height="1" fill="#9ca3af"/><rect x="8" y="4" width="1" height="1" fill="#e5e7eb"/><rect x="9" y="4" width="2" height="1" fill="#ffffff"/><rect x="11" y="4" width="2" height="1" fill="#e5e7eb"/><rect x="13" y="4" width="1" height="1" fill="#ffffff"/><rect x="14" y="4" width="1" height="1" fill="#d1e1f7"/><rect x="15" y="4" width="1" height="1" fill="#9ca3af"/><rect x="16" y="4" width="2" height="1" fill="#fae178"/><rect x="18" y="4" width="2" height="1" fill="#9ca3af"/><rect x="20" y="4" width="4" height="1" fill="#fae178"/><rect x="24" y="4" width="1" height="1" fill="#9ca3af"/><rect x="25" y="4" width="4" height="1" fill="#fae178"/><rect x="29" y="4" width="1" height="1" fill="#9ca3af"/><rect x="30" y="4" width="2" height="1" fill="#fae178"/><rect x="0" y="5" width="3" height="1" fill="#fae178"/><rect x="3" y="5" width="2" height="1" fill="#9ca3af"/><rect x="5" y="5" width="1" height="1" fill="#e5e7eb"/><rect x="6" y="5" width="1" height="1" fill="#d1e1f7"/><rect x="7" y="5" width="1" height="1" fill="#f88989"/><rect x="8" y="5" width="1" height="1" fill="#e5e7eb"/><rect x="9" y="5" width="1" height="1" fill="#9ca3af"/><rect x="10" y="5" width="2" height="1" fill="#e5e7eb"/><rect x="12" y="5" width="1" height="1" fill="#9ca3af"/><rect x="13" y="5" width="2" height="1" fill="#e5e7eb"/><rect x="15" y="5" width="1" height="1" fill="#9ca3af"/><rect x="16" y="5" width="2" height="1" fill="#fae178"/><rect x="18" y="5" width="2" height="1" fill="#9ca3af"/><rect x="20" y="5" width="4" height="1" fill="#fae178"/><rect x="24" y="5" width="1" height="1" fill="#9ca3af"/><rect x="25" y="5" width="2" height="1" fill="#e5e7eb"/><rect x="27" y="5" width="2" height="1" fill="#fae178"/><rect x="29" y="5" width="1" height="1" fill="#9ca3af"/><rect x="30" y="5" width="1" height="1" fill="#e5e7eb"/><rect x="31" y="5" width="1" height="1" fill="#fae178"/><rect x="0" y="6" width="3" height="1" fill="#fae178"/><rect x="3" y="6" width="2" height="1" fill="#9ca3af"/><rect x="5" y="6" width="2" height="1" fill="#d1e1f7"/><rect x="7" y="6" width="2" height="1" fill="#9ca3af"/><rect x="9" y="6" width="1" height="1" fill="#e5e7eb"/><rect x="10" y="6" width="1" height="1" fill="#ffffff"/><rect x="11" y="6" width="2" height="1" fill="#9ca3af"/><rect x="13" y="6" width="1" height="1" fill="#8ca7cc"/><rect x="14" y="6" width="1" height="1" fill="#d1e1f7"/><rect x="15" y="6" width="1" height="1" fill="#8ca7cc"/><rect x="16" y="6" width="1" height="1" fill="#9ca3af"/><rect x="17" y="6" width="1" height="1" fill="#fae178"/><rect x="18" y="6" width="2" height="1" fill="#9ca3af"/><rect x="20" y="6" width="4" height="1" fill="#e5e7eb"/><rect x="24" y="6" width="1" height="1" fill="#9ca3af"/><rect x="25" y="6" width="4" height="1" fill="#e5e7eb"/><rect x="29" y="6" width="1" height="1" fill="#9ca3af"/><rect x="30" y="6" width="2" height="1" fill="#e5e7eb"/><rect x="0" y="7" width="3" height="1" fill="#e5e7eb"/><rect x="3" y="7" width="1" height="1" fill="#9ca3af"/><rect x="4" y="7" width="1" height="1" fill="#6b7280"/><rect x="5" y="7" width="1" height="1" fill="#d1e1f7"/><rect x="6" y="7" width="1" height="1" fill="#8ca7cc"/><rect x="7" y="7" width="1" height="1" fill="#e5e7eb"/><rect x="8" y="7" width="1" height="1" fill="#9ca3af"/><rect x="9" y="7" width="4" height="1" fill="#e5e7eb"/><rect x="13" y="7" width="1" height="1" fill="#9ca3af"/><rect x="14" y="7" width="1" height="1" fill="#d1e1f7"/><rect x="15" y="7" width="1" height="1" fill="#8ca7cc"/><rect x="16" y="7" width="1" height="1" fill="#9ca3af"/><rect x="17" y="7" width="1" height="1" fill="#e5e7eb"/><rect x="18" y="7" width="2" height="1" fill="#9ca3af"/><rect x="20" y="7" width="4" height="1" fill="#e5e7eb"/><rect x="24" y="7" width="1" height="1" fill="#9ca3af"/><rect x="25" y="7" width="4" height="1" fill="#e5e7eb"/><rect x="29" y="7" width="1" height="1" fill="#9ca3af"/><rect x="30" y="7" width="2" height="1" fill="#e5e7eb"/><rect x="0" y="8" width="3" height="1" fill="#e5e7eb"/><rect x="3" y="8" width="1" height="1" fill="#9ca3af"/><rect x="4" y="8" width="1" height="1" fill="#6b7280"/><rect x="5" y="8" width="1" height="1" fill="#8ca7cc"/><rect x="6" y="8" width="1" height="1" fill="#9ca3af"/><rect x="7" y="8" width="1" height="1" fill="#e5e7eb"/><rect x="8" y="8" width="2" height="1" fill="#ffffff"/><rect x="10" y="8" width="1" height="1" fill="#e5e7eb"/><rect x="11" y="8" width="2" height="1" fill="#ffffff"/><rect x="13" y="8" width="1" height="1" fill="#9ca3af"/><rect x="14" y="8" width="2" height="1" fill="#8ca7cc"/><rect x="16" y="8" width="1" height="1" fill="#5c7aa8"/><rect x="17" y="8" width="15" height="1" fill="#9ca3af"/><rect x="0" y="9" width="3" height="1" fill="#e5e7eb"/><rect x="3" y="9" width="1" height="1" fill="#9ca3af"/><rect x="4" y="9" width="1" height="1" fill="#6b7280"/><rect x="5" y="9" width="1" height="1" fill="#8ca7cc"/><rect x="6" y="9" width="1" height="1" fill="#6b7280"/><rect x="7" y="9" width="1" height="1" fill="#e5e7eb"/><rect x="8" y="9" width="1" height="1" fill="#ffffff"/><rect x="9" y="9" width="3" height="1" fill="#e5e7eb"/><rect x="12" y="9" width="1" height="1" fill="#ffffff"/><rect x="13" y="9" width="1" height="1" fill="#9ca3af"/><rect x="14" y="9" width="1" height="1" fill="#8ca7cc"/><rect x="15" y="9" width="1" height="1" fill="#5c7aa8"/><rect x="16" y="9" width="1" height="1" fill="#6b7280"/><rect x="17" y="9" width="2" height="1" fill="#e5e7eb"/><rect x="19" y="9" width="1" height="1" fill="#9ca3af"/><rect x="20" y="9" width="3" height="1" fill="#e5e7eb"/><rect x="23" y="9" width="1" height="1" fill="#d1e1f7"/><rect x="24" y="9" width="1" height="1" fill="#9ca3af"/><rect x="25" y="9" width="3" height="1" fill="#e5e7eb"/><rect x="28" y="9" width="1" height="1" fill="#9ca3af"/><rect x="29" y="9" width="1" height="1" fill="#d1e1f7"/><rect x="30" y="9" width="2" height="1" fill="#e5e7eb"/><rect x="0" y="10" width="3" height="1" fill="#e5e7eb"/><rect x="3" y="10" width="1" height="1" fill="#9ca3af"/><rect x="4" y="10" width="1" height="1" fill="#6b7280"/><rect x="5" y="10" width="1" height="1" fill="#8ca7cc"/><rect x="6" y="10" width="1" height="1" fill="#6b7280"/><rect x="7" y="10" width="1" height="1" fill="#e5e7eb"/><rect x="8" y="10" width="1" height="1" fill="#ffffff"/><rect x="9" y="10" width="1" height="1" fill="#f88989"/><rect x="10" y="10" width="1" height="1" fill="#eb4d4d"/><rect x="11" y="10" width="1" height="1" fill="#f88989"/><rect x="12" y="10" width="1" height="1" fill="#e5e7eb"/><rect x="13" y="10" width="1" height="1" fill="#9ca3af"/><rect x="14" y="10" width="2" height="1" fill="#5c7aa8"/><rect x="16" y="10" width="1" height="1" fill="#6b7280"/><rect x="17" y="10" width="1" height="1" fill="#9ca3af"/><rect x="18" y="10" width="1" height="1" fill="#d1e1f7"/><rect x="19" y="10" width="1" height="1" fill="#9ca3af"/><rect x="20" y="10" width="3" height="1" fill="#d1e1f7"/><rect x="23" y="10" width="1" height="1" fill="#8ca7cc"/><rect x="24" y="10" width="1" height="1" fill="#9ca3af"/><rect x="25" y="10" width="3" height="1" fill="#d1e1f7"/><rect x="28" y="10" width="1" height="1" fill="#9ca3af"/><rect x="29" y="10" width="3" height="1" fill="#d1e1f7"/><rect x="0" y="11" width="1" height="1" fill="#e5e7eb"/><rect x="1" y="11" width="2" height="1" fill="#d1e1f7"/><rect x="3" y="11" width="1" height="1" fill="#9ca3af"/><rect x="4" y="11" width="1" height="1" fill="#6b7280"/><rect x="5" y="11" width="1" height="1" fill="#5c7aa8"/><rect x="6" y="11" width="1" height="1" fill="#6b7280"/><rect x="7" y="11" width="1" height="1" fill="#d1e1f7"/><rect x="8" y="11" width="2" height="1" fill="#e5e7eb"/><rect x="10" y="11" width="2" height="1" fill="#f88989"/><rect x="12" y="11" width="1" height="1" fill="#fae178"/><rect x="13" y="11" width="1" height="1" fill="#f88989"/><rect x="14" y="11" width="1" height="1" fill="#6b7280"/><rect x="15" y="11" width="2" height="1" fill="#5c7aa8"/><rect x="17" y="11" width="4" height="1" fill="#8ca7cc"/><rect x="21" y="11" width="1" height="1" fill="#d1e1f7"/><rect x="22" y="11" width="5" height="1" fill="#8ca7cc"/><rect x="27" y="11" width="1" height="1" fill="#d1e1f7"/><rect x="28" y="11" width="1" height="1" fill="#8ca7cc"/><rect x="29" y="11" width="1" height="1" fill="#d1e1f7"/><rect x="30" y="11" width="2" height="1" fill="#8ca7cc"/><rect x="0" y="12" width="1" height="1" fill="#d1e1f7"/><rect x="1" y="12" width="1" height="1" fill="#8ca7cc"/><rect x="2" y="12" width="3" height="1" fill="#d1e1f7"/><rect x="5" y="12" width="2" height="1" fill="#5c7aa8"/><rect x="7" y="12" width="3" height="1" fill="#9ca3af"/><rect x="10" y="12" width="2" height="1" fill="#fae178"/><rect x="12" y="12" width="2" height="1" fill="#f88989"/><rect x="14" y="12" width="1" height="1" fill="#9ca3af"/><rect x="15" y="12" width="1" height="1" fill="#5c7aa8"/><rect x="16" y="12" width="4" height="1" fill="#8ca7cc"/><rect x="20" y="12" width="1" height="1" fill="#e5e7eb"/><rect x="21" y="12" width="1" height="1" fill="#ffffff"/><rect x="22" y="12" width="1" height="1" fill="#e5e7eb"/><rect x="23" y="12" width="3" height="1" fill="#8ca7cc"/><rect x="26" y="12" width="2" height="1" fill="#ffffff"/><rect x="28" y="12" width="1" height="1" fill="#d1e1f7"/><rect x="29" y="12" width="3" height="1" fill="#8ca7cc"/><rect x="0" y="13" width="1" height="1" fill="#d1e1f7"/><rect x="1" y="13" width="1" height="1" fill="#8ca7cc"/><rect x="2" y="13" width="3" height="1" fill="#d1e1f7"/><rect x="5" y="13" width="1" height="1" fill="#8ca7cc"/><rect x="6" y="13" width="1" height="1" fill="#9ca3af"/><rect x="7" y="13" width="1" height="1" fill="#374151"/><rect x="8" y="13" width="2" height="1" fill="#090d16"/><rect x="10" y="13" width="1" height="1" fill="#4a3b10"/><rect x="11" y="13" width="1" height="1" fill="#7a6018"/><rect x="12" y="13" width="1" height="1" fill="#f0c23a"/><rect x="13" y="13" width="1" height="1" fill="#fae178"/><rect x="14" y="13" width="1" height="1" fill="#9ca3af"/><rect x="15" y="13" width="1" height="1" fill="#8ca7cc"/><rect x="16" y="13" width="1" height="1" fill="#d1e1f7"/><rect x="17" y="13" width="1" height="1" fill="#8ca7cc"/><rect x="18" y="13" width="2" height="1" fill="#d1e1f7"/><rect x="20" y="13" width="3" height="1" fill="#ffffff"/><rect x="23" y="13" width="2" height="1" fill="#d1e1f7"/><rect x="25" y="13" width="1" height="1" fill="#e5e7eb"/><rect x="26" y="13" width="3" height="1" fill="#ffffff"/><rect x="29" y="13" width="1" height="1" fill="#d1e1f7"/><rect x="30" y="13" width="1" height="1" fill="#8ca7cc"/><rect x="31" y="13" width="1" height="1" fill="#d1e1f7"/><rect x="0" y="14" width="1" height="1" fill="#8ca7cc"/><rect x="1" y="14" width="1" height="1" fill="#d1e1f7"/><rect x="2" y="14" width="1" height="1" fill="#e5e7eb"/><rect x="3" y="14" width="4" height="1" fill="#d1e1f7"/><rect x="7" y="14" width="1" height="1" fill="#141d2f"/><rect x="8" y="14" width="4" height="1" fill="#090d16"/><rect x="12" y="14" width="1" height="1" fill="#4a3b10"/><rect x="13" y="14" width="1" height="1" fill="#fae178"/><rect x="14" y="14" width="1" height="1" fill="#6b7280"/><rect x="15" y="14" width="2" height="1" fill="#d1e1f7"/><rect x="17" y="14" width="2" height="1" fill="#8ca7cc"/><rect x="19" y="14" width="1" height="1" fill="#d1e1f7"/><rect x="20" y="14" width="3" height="1" fill="#ffffff"/><rect x="23" y="14" width="3" height="1" fill="#d1e1f7"/><rect x="26" y="14" width="3" height="1" fill="#ffffff"/><rect x="29" y="14" width="1" height="1" fill="#d1e1f7"/><rect x="30" y="14" width="1" height="1" fill="#8ca7cc"/><rect x="31" y="14" width="1" height="1" fill="#d1e1f7"/><rect x="0" y="15" width="1" height="1" fill="#8ca7cc"/><rect x="1" y="15" width="1" height="1" fill="#d1e1f7"/><rect x="2" y="15" width="1" height="1" fill="#ffffff"/><rect x="3" y="15" width="1" height="1" fill="#d1e1f7"/><rect x="4" y="15" width="1" height="1" fill="#e5e7eb"/><rect x="5" y="15" width="1" height="1" fill="#d1e1f7"/><rect x="6" y="15" width="1" height="1" fill="#6b7280"/><rect x="7" y="15" width="1" height="1" fill="#243452"/><rect x="8" y="15" width="1" height="1" fill="#374151"/><rect x="9" y="15" width="4" height="1" fill="#090d16"/><rect x="13" y="15" width="1" height="1" fill="#fae178"/><rect x="14" y="15" width="1" height="1" fill="#6b7280"/><rect x="15" y="15" width="1" height="1" fill="#d1e1f7"/><rect x="16" y="15" width="3" height="1" fill="#8ca7cc"/><rect x="19" y="15" width="2" height="1" fill="#9ca3af"/><rect x="21" y="15" width="3" height="1" fill="#6b7280"/><rect x="24" y="15" width="3" height="1" fill="#9ca3af"/><rect x="27" y="15" width="5" height="1" fill="#d1e1f7"/><rect x="0" y="16" width="2" height="1" fill="#d1e1f7"/><rect x="2" y="16" width="1" height="1" fill="#ffffff"/><rect x="3" y="16" width="2" height="1" fill="#d1e1f7"/><rect x="5" y="16" width="1" height="1" fill="#5c7aa8"/><rect x="6" y="16" width="1" height="1" fill="#243452"/><rect x="7" y="16" width="3" height="1" fill="#3b5177"/><rect x="10" y="16" width="1" height="1" fill="#374151"/><rect x="11" y="16" width="1" height="1" fill="#6b7280"/><rect x="12" y="16" width="1" height="1" fill="#b58f22"/><rect x="13" y="16" width="1" height="1" fill="#fae178"/><rect x="14" y="16" width="1" height="1" fill="#f0c23a"/><rect x="15" y="16" width="1" height="1" fill="#9ca3af"/><rect x="16" y="16" width="7" height="1" fill="#374151"/><rect x="23" y="16" width="1" height="1" fill="#7a6018"/><rect x="24" y="16" width="2" height="1" fill="#b58f22"/><rect x="26" y="16" width="3" height="1" fill="#6b7280"/><rect x="29" y="16" width="1" height="1" fill="#9ca3af"/><rect x="30" y="16" width="1" height="1" fill="#6b7280"/><rect x="31" y="16" width="1" height="1" fill="#9ca3af"/><rect x="0" y="17" width="2" height="1" fill="#d1e1f7"/><rect x="2" y="17" width="1" height="1" fill="#ffffff"/><rect x="3" y="17" width="1" height="1" fill="#d1e1f7"/><rect x="4" y="17" width="1" height="1" fill="#ffffff"/><rect x="5" y="17" width="1" height="1" fill="#374151"/><rect x="6" y="17" width="1" height="1" fill="#243452"/><rect x="7" y="17" width="4" height="1" fill="#3b5177"/><rect x="11" y="17" width="1" height="1" fill="#374151"/><rect x="12" y="17" width="1" height="1" fill="#6b7280"/><rect x="13" y="17" width="1" height="1" fill="#3b5177"/><rect x="14" y="17" width="1" height="1" fill="#6b7280"/><rect x="15" y="17" width="8" height="1" fill="#374151"/><rect x="23" y="17" width="1" height="1" fill="#7a6018"/><rect x="24" y="17" width="8" height="1" fill="#b58f22"/><rect x="0" y="18" width="2" height="1" fill="#d1e1f7"/><rect x="2" y="18" width="1" height="1" fill="#ffffff"/><rect x="3" y="18" width="1" height="1" fill="#d1e1f7"/><rect x="4" y="18" width="1" height="1" fill="#ffffff"/><rect x="5" y="18" width="1" height="1" fill="#243452"/><rect x="6" y="18" width="1" height="1" fill="#374151"/><rect x="7" y="18" width="4" height="1" fill="#3b5177"/><rect x="11" y="18" width="1" height="1" fill="#243452"/><rect x="12" y="18" width="3" height="1" fill="#3b5177"/><rect x="15" y="18" width="8" height="1" fill="#374151"/><rect x="23" y="18" width="1" height="1" fill="#7a6018"/><rect x="24" y="18" width="8" height="1" fill="#b58f22"/><rect x="0" y="19" width="2" height="1" fill="#d1e1f7"/><rect x="2" y="19" width="1" height="1" fill="#ffffff"/><rect x="3" y="19" width="1" height="1" fill="#d1e1f7"/><rect x="4" y="19" width="1" height="1" fill="#ffffff"/><rect x="5" y="19" width="1" height="1" fill="#141d2f"/><rect x="6" y="19" width="6" height="1" fill="#3b5177"/><rect x="12" y="19" width="1" height="1" fill="#243452"/><rect x="13" y="19" width="2" height="1" fill="#3b5177"/><rect x="15" y="19" width="8" height="1" fill="#374151"/><rect x="23" y="19" width="1" height="1" fill="#7a6018"/><rect x="24" y="19" width="8" height="1" fill="#b58f22"/><rect x="0" y="20" width="1" height="1" fill="#d1e1f7"/><rect x="1" y="20" width="1" height="1" fill="#e5e7eb"/><rect x="2" y="20" width="1" height="1" fill="#ffffff"/><rect x="3" y="20" width="1" height="1" fill="#d1e1f7"/><rect x="4" y="20" width="1" height="1" fill="#e5e7eb"/><rect x="5" y="20" width="1" height="1" fill="#141d2f"/><rect x="6" y="20" width="3" height="1" fill="#3b5177"/><rect x="9" y="20" width="1" height="1" fill="#374151"/><rect x="10" y="20" width="2" height="1" fill="#3b5177"/><rect x="12" y="20" width="1" height="1" fill="#374151"/><rect x="13" y="20" width="1" height="1" fill="#243452"/><rect x="14" y="20" width="1" height="1" fill="#3b5177"/><rect x="15" y="20" width="8" height="1" fill="#374151"/><rect x="23" y="20" width="1" height="1" fill="#7a6018"/><rect x="24" y="20" width="8" height="1" fill="#b58f22"/><rect x="0" y="21" width="1" height="1" fill="#d1e1f7"/><rect x="1" y="21" width="1" height="1" fill="#e5e7eb"/><rect x="2" y="21" width="1" height="1" fill="#ffffff"/><rect x="3" y="21" width="2" height="1" fill="#d1e1f7"/><rect x="5" y="21" width="1" height="1" fill="#141d2f"/><rect x="6" y="21" width="3" height="1" fill="#3b5177"/><rect x="9" y="21" width="1" height="1" fill="#2a0845"/><rect x="10" y="21" width="3" height="1" fill="#3b5177"/><rect x="13" y="21" width="3" height="1" fill="#243452"/><rect x="16" y="21" width="7" height="1" fill="#374151"/><rect x="23" y="21" width="1" height="1" fill="#6b7280"/><rect x="24" y="21" width="8" height="1" fill="#b58f22"/><rect x="0" y="22" width="1" height="1" fill="#d1e1f7"/><rect x="1" y="22" width="1" height="1" fill="#e5e7eb"/><rect x="2" y="22" width="1" height="1" fill="#ffffff"/><rect x="3" y="22" width="1" height="1" fill="#e5e7eb"/><rect x="4" y="22" width="1" height="1" fill="#d1e1f7"/><rect x="5" y="22" width="1" height="1" fill="#141d2f"/><rect x="6" y="22" width="2" height="1" fill="#3b5177"/><rect x="8" y="22" width="2" height="1" fill="#243452"/><rect x="10" y="22" width="3" height="1" fill="#3b5177"/><rect x="13" y="22" width="1" height="1" fill="#6b7280"/><rect x="14" y="22" width="1" height="1" fill="#374151"/><rect x="15" y="22" width="1" height="1" fill="#2a0845"/><rect x="16" y="22" width="7" height="1" fill="#374151"/><rect x="23" y="22" width="1" height="1" fill="#7a6018"/><rect x="24" y="22" width="8" height="1" fill="#b58f22"/><rect x="0" y="23" width="1" height="1" fill="#d1e1f7"/><rect x="1" y="23" width="2" height="1" fill="#ffffff"/><rect x="3" y="23" width="1" height="1" fill="#e5e7eb"/><rect x="4" y="23" width="1" height="1" fill="#d1e1f7"/><rect x="5" y="23" width="1" height="1" fill="#141d2f"/><rect x="6" y="23" width="1" height="1" fill="#3b5177"/><rect x="7" y="23" width="1" height="1" fill="#243452"/><rect x="8" y="23" width="1" height="1" fill="#2a0845"/><rect x="9" y="23" width="1" height="1" fill="#374151"/><rect x="10" y="23" width="2" height="1" fill="#3b5177"/><rect x="12" y="23" width="1" height="1" fill="#6b7280"/><rect x="13" y="23" width="1" height="1" fill="#fae178"/><rect x="14" y="23" width="1" height="1" fill="#b58f22"/><rect x="15" y="23" width="1" height="1" fill="#141d2f"/><rect x="16" y="23" width="7" height="1" fill="#374151"/><rect x="23" y="23" width="1" height="1" fill="#7a6018"/><rect x="24" y="23" width="8" height="1" fill="#b58f22"/><rect x="0" y="24" width="1" height="1" fill="#d1e1f7"/><rect x="1" y="24" width="2" height="1" fill="#ffffff"/><rect x="3" y="24" width="1" height="1" fill="#e5e7eb"/><rect x="4" y="24" width="1" height="1" fill="#d1e1f7"/><rect x="5" y="24" width="1" height="1" fill="#141d2f"/><rect x="6" y="24" width="1" height="1" fill="#243452"/><rect x="7" y="24" width="2" height="1" fill="#2a0845"/><rect x="9" y="24" width="2" height="1" fill="#3b5177"/><rect x="11" y="24" width="1" height="1" fill="#6b7280"/><rect x="12" y="24" width="1" height="1" fill="#fae178"/><rect x="13" y="24" width="1" height="1" fill="#b58f22"/><rect x="14" y="24" width="1" height="1" fill="#090d16"/><rect x="15" y="24" width="8" height="1" fill="#374151"/><rect x="23" y="24" width="1" height="1" fill="#7a6018"/><rect x="24" y="24" width="2" height="1" fill="#b58f22"/><rect x="26" y="24" width="1" height="1" fill="#6b7280"/><rect x="27" y="24" width="5" height="1" fill="#b58f22"/><rect x="0" y="25" width="1" height="1" fill="#e5e7eb"/><rect x="1" y="25" width="2" height="1" fill="#d1e1f7"/><rect x="3" y="25" width="1" height="1" fill="#e5e7eb"/><rect x="4" y="25" width="1" height="1" fill="#ffffff"/><rect x="5" y="25" width="1" height="1" fill="#3b5177"/><rect x="6" y="25" width="1" height="1" fill="#2a0845"/><rect x="7" y="25" width="2" height="1" fill="#141d2f"/><rect x="9" y="25" width="2" height="1" fill="#374151"/><rect x="11" y="25" width="1" height="1" fill="#fae178"/><rect x="12" y="25" width="1" height="1" fill="#7a6018"/><rect x="13" y="25" width="3" height="1" fill="#090d16"/><rect x="16" y="25" width="7" height="1" fill="#374151"/><rect x="23" y="25" width="1" height="1" fill="#7a6018"/><rect x="24" y="25" width="2" height="1" fill="#b58f22"/><rect x="26" y="25" width="2" height="1" fill="#6b7280"/><rect x="28" y="25" width="4" height="1" fill="#b58f22"/><rect x="0" y="26" width="3" height="1" fill="#ffffff"/><rect x="3" y="26" width="1" height="1" fill="#d1e1f7"/><rect x="4" y="26" width="1" height="1" fill="#8ca7cc"/><rect x="5" y="26" width="1" height="1" fill="#374151"/><rect x="6" y="26" width="3" height="1" fill="#2a0845"/><rect x="9" y="26" width="1" height="1" fill="#374151"/><rect x="10" y="26" width="1" height="1" fill="#fae178"/><rect x="11" y="26" width="1" height="1" fill="#7a6018"/><rect x="12" y="26" width="5" height="1" fill="#090d16"/><rect x="17" y="26" width="1" height="1" fill="#111827"/><rect x="18" y="26" width="5" height="1" fill="#374151"/><rect x="23" y="26" width="1" height="1" fill="#7a6018"/><rect x="24" y="26" width="2" height="1" fill="#6b7280"/><rect x="26" y="26" width="1" height="1" fill="#b58f22"/><rect x="27" y="26" width="3" height="1" fill="#6b7280"/><rect x="30" y="26" width="2" height="1" fill="#b58f22"/><rect x="0" y="27" width="5" height="1" fill="#ffffff"/><rect x="5" y="27" width="1" height="1" fill="#9ca3af"/><rect x="6" y="27" width="1" height="1" fill="#243452"/><rect x="7" y="27" width="1" height="1" fill="#2a0845"/><rect x="8" y="27" width="1" height="1" fill="#141d2f"/><rect x="9" y="27" width="1" height="1" fill="#f0c23a"/><rect x="10" y="27" width="1" height="1" fill="#b58f22"/><rect x="11" y="27" width="10" height="1" fill="#090d16"/><rect x="21" y="27" width="1" height="1" fill="#4a3b10"/><rect x="22" y="27" width="1" height="1" fill="#b58f22"/><rect x="23" y="27" width="1" height="1" fill="#f0c23a"/><rect x="24" y="27" width="3" height="1" fill="#fae178"/><rect x="27" y="27" width="1" height="1" fill="#9ca3af"/><rect x="28" y="27" width="1" height="1" fill="#f88989"/><rect x="29" y="27" width="3" height="1" fill="#6b7280"/><rect x="0" y="28" width="6" height="1" fill="#ffffff"/><rect x="6" y="28" width="1" height="1" fill="#e5e7eb"/><rect x="7" y="28" width="1" height="1" fill="#374151"/><rect x="8" y="28" width="1" height="1" fill="#7a6018"/><rect x="9" y="28" width="1" height="1" fill="#b58f22"/><rect x="10" y="28" width="12" height="1" fill="#090d16"/><rect x="22" y="28" width="6" height="1" fill="#fae178"/><rect x="28" y="28" width="4" height="1" fill="#6b7280"/><rect x="0" y="29" width="8" height="1" fill="#ffffff"/><rect x="8" y="29" width="1" height="1" fill="#6b7280"/><rect x="9" y="29" width="1" height="1" fill="#4a3b10"/><rect x="10" y="29" width="12" height="1" fill="#090d16"/><rect x="22" y="29" width="1" height="1" fill="#b58f22"/><rect x="23" y="29" width="4" height="1" fill="#fae178"/><rect x="27" y="29" width="1" height="1" fill="#f88989"/><rect x="28" y="29" width="1" height="1" fill="#e5e7eb"/><rect x="29" y="29" width="1" height="1" fill="#9ca3af"/><rect x="30" y="29" width="1" height="1" fill="#f88989"/><rect x="31" y="29" width="1" height="1" fill="#6b7280"/><rect x="0" y="30" width="9" height="1" fill="#ffffff"/><rect x="9" y="30" width="1" height="1" fill="#111827"/><rect x="10" y="30" width="12" height="1" fill="#090d16"/><rect x="22" y="30" width="1" height="1" fill="#7a6018"/><rect x="23" y="30" width="1" height="1" fill="#b58f22"/><rect x="24" y="30" width="3" height="1" fill="#fae178"/><rect x="27" y="30" width="1" height="1" fill="#b58f22"/><rect x="28" y="30" width="2" height="1" fill="#e5e7eb"/><rect x="30" y="30" width="1" height="1" fill="#f88989"/><rect x="31" y="30" width="1" height="1" fill="#7a6018"/><rect x="0" y="31" width="9" height="1" fill="#ffffff"/><rect x="9" y="31" width="1" height="1" fill="#e5e7eb"/><rect x="10" y="31" width="12" height="1" fill="#090d16"/><rect x="22" y="31" width="3" height="1" fill="#7a6018"/><rect x="25" y="31" width="1" height="1" fill="#b58f22"/><rect x="26" y="31" width="1" height="1" fill="#f0c23a"/><rect x="27" y="31" width="1" height="1" fill="#b58f22"/><rect x="28" y="31" width="2" height="1" fill="#f88989"/><rect x="30" y="31" width="1" height="1" fill="#9ca3af"/><rect x="31" y="31" width="1" height="1" fill="#8ca7cc"/></svg>