<svg xmlns="http://www.w3.org/2000/svg" viewBox="0 0 32 32" shape-rendering="crispEdges"><rect x="15" y="1" width="1" height="1" fill="#e0f2fe"/><rect x="14" y="2" width="3" height="1" fill="#e0f2fe"/><rect x="13" y="3" width="5" height="1" fill="#e0f2fe"/><rect x="12" y="4" width="7" height="1" fill="#0c4a6e"/><rect x="10" y="5" width="2" height="1" fill="#0c4a6e"/><rect x="12" y="5" width="7" height="1" fill="#38bdf8"/><rect x="19" y="5" width="2" height="1" fill="#0c4a6e"/><rect x="8" y="6" width="2" height="1" fill="#0c4a6e"/><rect x="10" y="6" width="11" height="1" fill="#38bdf8"/><rect x="21" y="6" width="2" height="1" fill="#0c4a6e"/><rect x="6" y="7" width="3" height="1" fill="#0c4a6e"/><rect x="22" y="7" width="3" height="1" fill="#0c4a6e"/><rect x="9" y="8" width="1" height="1" fill="#0c4a6e"/><rect x="10" y="8" width="11" height="1" fill="#0284c7"/><rect x="21" y="8" width="1" height="1" fill="#0c4a6e"/><rect x="9" y="9" width="1" height="1" fill="#0c4a6e"/><rect x="10" y="9" width="1" height="1" fill="#0284c7"/><rect x="11" y="9" width="1" height="1" fill="#e0f2fe"/><rect x="12" y="9" width="7" height="1" fill="#0284c7"/><rect x="19" y="9" width="1" height="1" fill="#e0f2fe"/><rect x="20" y="9" width="1" height="1" fill="#38bdf8"/><rect x="21" y="9" width="1" height="1" fill="#0c4a6e"/><rect x="8" y="10" width="3" height="1" fill="#0c4a6e"/><rect x="20" y="10" width="3" height="1" fill="#0c4a6e"/><rect x="6" y="11" width="2" height="1" fill="#0c4a6e"/><rect x="8" y="11" width="15" height="1" fill="#38bdf8"/><rect x="23" y="11" width="2" height="1" fill="#0c4a6e"/><rect x="4" y="12" width="2" height="1" fill="#0c4a6e"/><rect x="6" y="12" width="19" height="1" fill="#38bdf8"/><rect x="25" y="12" width="2" height="1" fill="#0c4a6e"/><rect x="3" y="13" width="3" height="1" fill="#0c4a6e"/><rect x="25" y="13" width="3" height="1" fill="#0c4a6e"/><rect x="6" y="14" width="1" height="1" fill="#0c4a6e"/><rect x="7" y="14" width="17" height="1" fill="#0284c7"/><rect x="24" y="14" width="1" height="1" fill="#0c4a6e"/><rect x="6" y="15" width="1" height="1" fill="#0c4a6e"/><rect x="7" y="15" width="1" height="1" fill="#0284c7"/><rect x="8" y="15" width="1" height="1" fill="#e0f2fe"/><rect x="9" y="15" width="7" height="1" fill="#0284c7"/><rect x="16" y="15" width="1" height="1" fill="#f59e0b"/><rect x="17" y="15" width="6" height="1" fill="#0284c7"/><rect x="23" y="15" width="1" height="1" fill="#e0f2fe"/><rect x="24" y="15" width="1" height="1" fill="#38bdf8"/><rect x="25" y="15" width="1" height="1" fill="#0c4a6e"/><rect x="5" y="16" width="3" height="1" fill="#0c4a6e"/><rect x="23" y="16" width="3" height="1" fill="#0c4a6e"/><rect x="3" y="17" width="2" height="1" fill="#0c4a6e"/><rect x="5" y="17" width="21" height="1" fill="#38bdf8"/><rect x="26" y="17" width="2" height="1" fill="#0c4a6e"/><rect x="2" y="18" width="2" height="1" fill="#0c4a6e"/><rect x="4" y="18" width="23" height="1" fill="#38bdf8"/><rect x="27" y="18" width="2" height="1" fill="#0c4a6e"/><rect x="1" y="19" width="3" height="1" fill="#0c4a6e"/><rect x="27" y="19" width="3" height="1" fill="#0c4a6e"/><rect x="4" y="20" width="1" height="1" fill="#0c4a6e"/><rect x="5" y="20" width="21" height="1" fill="#0284c7"/><rect x="26" y="20" width="1" height="1" fill="#0c4a6e"/><rect x="4" y="21" width="1" height="1" fill="#0c4a6e"/><rect x="5" y="21" width="2" height="1" fill="#0284c7"/><rect x="7" y="21" width="2" height="1" fill="#0c4a6e"/><rect x="9" y="21" width="4" height="1" fill="#0284c7"/><rect x="13" y="21" width="2" height="1" fill="#0c4a6e"/><rect x="15" y="21" width="1" height="1" fill="#0284c7"/><rect x="16" y="21" width="2" height="1" fill="#0c4a6e"/><rect x="18" y="21" width="4" height="1" fill="#0284c7"/><rect x="22" y="21" width="2" height="1" fill="#0c4a6e"/><rect x="24" y="21" width="2" height="1" fill="#0284c7"/><rect x="26" y="21" width="1" height="1" fill="#0c4a6e"/><rect x="4" y="22" width="1" height="1" fill="#0c4a6e"/><rect x="5" y="22" width="2" height="1" fill="#0284c7"/><rect x="7" y="22" width="2" height="1" fill="#0c4a6e"/><rect x="9" y="22" width="4" height="1" fill="#0284c7"/><rect x="13" y="22" width="2" height="1" fill="#0c4a6e"/><rect x="15" y="22" width="1" height="1" fill="#0284c7"/><rect x="16" y="22" width="2" height="1" fill="#0c4a6e"/><rect x="18" y="22" width="4" height="1" fill="#0284c7"/><rect x="22" y="22" width="2" height="1" fill="#0c4a6e"/><rect x="24" y="22" width="2" height="1" fill="#0284c7"/><rect x="26" y="22" width="1" height="1" fill="#0c4a6e"/><rect x="4" y="23" width="1" height="1" fill="#0c4a6e"/><rect x="5" y="23" width="2" height="1" fill="#0284c7"/><rect x="7" y="23" width="2" height="1" fill="#0c4a6e"/><rect x="9" y="23" width="4" height="1" fill="#0284c7"/><rect x="13" y="23" width="2" height="1" fill="#0c4a6e"/><rect x="15" y="23" width="1" height="1" fill="#0284c7"/><rect x="16" y="23" width="2" height="1" fill="#0c4a6e"/><rect x="18" y="23" width="4" height="1" fill="#0284c7"/><rect x="22" y="23" width="2" height="1" fill="#0c4a6e"/><rect x="24" y="23" width="2" height="1" fill="#0284c7"/><rect x="26" y="23" width="1" height="1" fill="#0c4a6e"/><rect x="4" y="24" width="1" height="1" fill="#0c4a6e"/><rect x="5" y="24" width="8" height="1" fill="#0284c7"/><rect x="13" y="24" width="2" height="1" fill="#0c4a6e"/><rect x="17" y="24" width="2" height="1" fill="#0c4a6e"/><rect x="19" y="24" width="7" height="1" fill="#0284c7"/><rect x="26" y="24" width="1" height="1" fill="#0c4a6e"/><rect x="3" y="25" width="25" height="1" fill="#0c4a6e"/><rect x="2" y="26" width="1" height="1" fill="#0c4a6e"/><rect x="3" y="26" width="25" height="1" fill="#e0f2fe"/><rect x="28" y="26" width="1" height="1" fill="#0c4a6e"/><rect x="1" y="27" width="1" height="1" fill="#0c4a6e"/><rect x="2" y="27" width="27" height="1" fill="#e0f2fe"/><rect x="29" y="27" width="1" height="1" fill="#0c4a6e"/><rect x="2" y="28" width="1" height="1" fill="#0c4a6e"/><rect x="3" y="28" width="25" height="1" fill="#e0f2fe"/><rect x="28" y="28" width="1" height="1" fill="#0c4a6e"/></svg>