<svg xmlns="http://www.w3.org/2000/svg" viewBox="0 0 32 32" shape-rendering="crispEdges"><rect x="15" y="1" width="1" height="1" fill="#ffffff"/><rect x="15" y="2" width="1" height="1" fill="#ffffff"/><rect x="14" y="3" width="1" height="1" fill="#cbd5e1"/><rect x="15" y="3" width="1" height="1" fill="#ffffff"/><rect x="16" y="3" width="1" height="1" fill="#cbd5e1"/><rect x="14" y="4" width="1" height="1" fill="#cbd5e1"/><rect x="15" y="4" width="1" height="1" fill="#ffffff"/><rect x="16" y="4" width="1" height="1" fill="#cbd5e1"/><rect x="13" y="5" width="2" height="1" fill="#cbd5e1"/><rect x="15" y="5" width="1" height="1" fill="#ffffff"/><rect x="16" y="5" width="2" height="1" fill="#cbd5e1"/><rect x="13" y="6" width="2" height="1" fill="#cbd5e1"/><rect x="15" y="6" width="1" height="1" fill="#ffffff"/><rect x="16" y="6" width="2" height="1" fill="#cbd5e1"/><rect x="13" y="7" width="2" height="1" fill="#cbd5e1"/><rect x="15" y="7" width="1" height="1" fill="#ffffff"/><rect x="16" y="7" width="2" height="1" fill="#cbd5e1"/><rect x="12" y="8" width="3" height="1" fill="#cbd5e1"/><rect x="15" y="8" width="1" height="1" fill="#ffffff"/><rect x="16" y="8" width="3" height="1" fill="#cbd5e1"/><rect x="7" y="9" width="1" height="1" fill="#ffffff"/><rect x="12" y="9" width="3" height="1" fill="#cbd5e1"/><rect x="15" y="9" width="1" height="1" fill="#ffffff"/><rect x="16" y="9" width="3" height="1" fill="#cbd5e1"/><rect x="23" y="9" width="1" height="1" fill="#ffffff"/><rect x="6" y="10" width="1" height="1" fill="#cbd5e1"/><rect x="7" y="10" width="1" height="1" fill="#ffffff"/><rect x="8" y="10" width="1" height="1" fill="#cbd5e1"/><rect x="12" y="10" width="3" height="1" fill="#cbd5e1"/><rect x="15" y="10" width="1" height="1" fill="#ffffff"/><rect x="16" y="10" width="3" height="1" fill="#cbd5e1"/><rect x="22" y="10" width="1" height="1" fill="#cbd5e1"/><rect x="23" y="10" width="1" height="1" fill="#ffffff"/><rect x="24" y="10" width="1" height="1" fill="#cbd5e1"/><rect x="5" y="11" width="2" height="1" fill="#cbd5e1"/><rect x="7" y="11" width="1" height="1" fill="#ffffff"/><rect x="8" y="11" width="2" height="1" fill="#cbd5e1"/><rect x="12" y="11" width="3" height="1" fill="#cbd5e1"/><rect x="15" y="11" width="1" height="1" fill="#ffffff"/><rect x="16" y="11" width="3" height="1" fill="#cbd5e1"/><rect x="21" y="11" width="2" height="1" fill="#cbd5e1"/><rect x="23" y="11" width="1" height="1" fill="#ffffff"/><rect x="24" y="11" width="2" height="1" fill="#cbd5e1"/><rect x="5" y="12" width="2" height="1" fill="#cbd5e1"/><rect x="7" y="12" width="1" height="1" fill="#ffffff"/><rect x="8" y="12" width="2" height="1" fill="#cbd5e1"/><rect x="12" y="12" width="3" height="1" fill="#cbd5e1"/><rect x="15" y="12" width="1" height="1" fill="#ffffff"/><rect x="16" y="12" width="3" height="1" fill="#cbd5e1"/><rect x="21" y="12" width="2" height="1" fill="#cbd5e1"/><rect x="23" y="12" width="1" height="1" fill="#ffffff"/><rect x="24" y="12" width="2" height="1" fill="#cbd5e1"/><rect x="4" y="13" width="4" height="1" fill="#cbd5e1"/><rect x="8" y="13" width="1" height="1" fill="#ffffff"/><rect x="9" y="13" width="6" height="1" fill="#cbd5e1"/><rect x="15" y="13" width="1" height="1" fill="#ffffff"/><rect x="16" y="13" width="7" height="1" fill="#cbd5e1"/><rect x="23" y="13" width="1" height="1" fill="#ffffff"/><rect x="24" y="13" width="4" height="1" fill="#cbd5e1"/><rect x="4" y="14" width="4" height="1" fill="#cbd5e1"/><rect x="8" y="14" width="1" height="1" fill="#ffffff"/><rect x="9" y="14" width="6" height="1" fill="#cbd5e1"/><rect x="15" y="14" width="1" height="1" fill="#ffffff"/><rect x="16" y="14" width="7" height="1" fill="#cbd5e1"/><rect x="23" y="14" width="1" height="1" fill="#ffffff"/><rect x="24" y="14" width="4" height="1" fill="#cbd5e1"/><rect x="3" y="15" width="5" height="1" fill="#cbd5e1"/><rect x="8" y="15" width="1" height="1" fill="#ffffff"/><rect x="9" y="15" width="6" height="1" fill="#cbd5e1"/><rect x="15" y="15" width="1" height="1" fill="#ffffff"/><rect x="16" y="15" width="7" height="1" fill="#cbd5e1"/><rect x="23" y="15" width="1" height="1" fill="#ffffff"/><rect x="24" y="15" width="5" height="1" fill="#cbd5e1"/><rect x="3" y="16" width="5" height="1" fill="#cbd5e1"/><rect x="8" y="16" width="1" height="1" fill="#ffffff"/><rect x="9" y="16" width="6" height="1" fill="#cbd5e1"/><rect x="15" y="16" width="1" height="1" fill="#ffffff"/><rect x="16" y="16" width="7" height="1" fill="#cbd5e1"/><rect x="23" y="16" width="1" height="1" fill="#ffffff"/><rect x="24" y="16" width="5" height="1" fill="#cbd5e1"/><rect x="2" y="17" width="6" height="1" fill="#0f172a"/><rect x="8" y="17" width="1" height="1" fill="#ffffff"/><rect x="9" y="17" width="14" height="1" fill="#0f172a"/><rect x="23" y="17" width="1" height="1" fill="#ffffff"/><rect x="24" y="17" width="6" height="1" fill="#0f172a"/><rect x="1" y="18" width="1" height="1" fill="#0f172a"/><rect x="2" y="18" width="6" height="1" fill="#64748b"/><rect x="8" y="18" width="1" height="1" fill="#ffffff"/><rect x="9" y="18" width="14" height="1" fill="#64748b"/><rect x="23" y="18" width="1" height="1" fill="#ffffff"/><rect x="24" y="18" width="6" height="1" fill="#64748b"/><rect x="30" y="18" width="1" height="1" fill="#0f172a"/><rect x="1" y="19" width="1" height="1" fill="#0f172a"/><rect x="2" y="19" width="6" height="1" fill="#64748b"/><rect x="8" y="19" width="1" height="1" fill="#ffffff"/><rect x="9" y="19" width="14" height="1" fill="#64748b"/><rect x="23" y="19" width="1" height="1" fill="#ffffff"/><rect x="24" y="19" width="6" height="1" fill="#64748b"/><rect x="30" y="19" width="1" height="1" fill="#0f172a"/><rect x="0" y="20" width="1" height="1" fill="#0f172a"/><rect x="1" y="20" width="7" height="1" fill="#64748b"/><rect x="8" y="20" width="1" height="1" fill="#ffffff"/><rect x="9" y="20" width="14" height="1" fill="#64748b"/><rect x="23" y="20" width="1" height="1" fill="#ffffff"/><rect x="24" y="20" width="7" height="1" fill="#64748b"/><rect x="31" y="20" width="1" height="1" fill="#0f172a"/><rect x="0" y="21" width="1" height="1" fill="#0f172a"/><rect x="1" y="21" width="7" height="1" fill="#64748b"/><rect x="8" y="21" width="1" height="1" fill="#ffffff"/><rect x="9" y="21" width="14" height="1" fill="#64748b"/><rect x="23" y="21" width="1" height="1" fill="#ffffff"/><rect x="24" y="21" width="7" height="1" fill="#64748b"/><rect x="31" y="21" width="1" height="1" fill="#0f172a"/><rect x="1" y="22" width="7" height="1" fill="#0f172a"/><rect x="8" y="22" width="1" height="1" fill="#ffffff"/><rect x="9" y="22" width="14" height="1" fill="#0f172a"/><rect x="23" y="22" width="1" height="1" fill="#ffffff"/><rect x="24" y="22" width="6" height="1" fill="#0f172a"/><rect x="7" y="23" width="1" height="1" fill="#0f172a"/><rect x="8" y="23" width="1" height="1" fill="#64748b"/><rect x="9" y="23" width="1" height="1" fill="#0f172a"/><rect x="22" y="23" width="1" height="1" fill="#0f172a"/><rect x="23" y="23" width="1" height="1" fill="#64748b"/><rect x="24" y="23" width="1" height="1" fill="#0f172a"/><rect x="7" y="24" width="1" height="1" fill="#0f172a"/><rect x="8" y="24" width="1" height="1" fill="#64748b"/><rect x="9" y="24" width="1" height="1" fill="#0f172a"/><rect x="14" y="24" width="4" height="1" fill="#0f172a"/><rect x="22" y="24" width="1" height="1" fill="#0f172a"/><rect x="23" y="24" width="1" height="1" fill="#64748b"/><rect x="24" y="24" width="1" height="1" fill="#0f172a"/><rect x="6" y="25" width="1" height="1" fill="#0f172a"/><rect x="7" y="25" width="2" height="1" fill="#64748b"/><rect x="9" y="25" width="1" height="1" fill="#0f172a"/><rect x="13" y="25" width="1" height="1" fill="#0f172a"/><rect x="14" y="25" width="4" height="1" fill="#38bdf8"/><rect x="18" y="25" width="1" height="1" fill="#0f172a"/><rect x="22" y="25" width="1" height="1" fill="#0f172a"/><rect x="23" y="25" width="2" height="1" fill="#64748b"/><rect x="25" y="25" width="1" height="1" fill="#0f172a"/><rect x="5" y="26" width="1" height="1" fill="#0f172a"/><rect x="6" y="26" width="3" height="1" fill="#64748b"/><rect x="9" y="26" width="1" height="1" fill="#0f172a"/><rect x="12" y="26" width="1" height="1" fill="#0f172a"/><rect x="13" y="26" width="6" height="1" fill="#38bdf8"/><rect x="19" y="26" width="1" height="1" fill="#0f172a"/><rect x="22" y="26" width="1" height="1" fill="#0f172a"/><rect x="23" y="26" width="3" height="1" fill="#64748b"/><rect x="26" y="26" width="1" height="1" fill="#0f172a"/><rect x="4" y="27" width="1" height="1" fill="#0f172a"/><rect x="5" y="27" width="4" height="1" fill="#64748b"/><rect x="9" y="27" width="1" height="1" fill="#0f172a"/><rect x="11" y="27" width="1" height="1" fill="#0f172a"/><rect x="12" y="27" width="8" height="1" fill="#38bdf8"/><rect x="20" y="27" width="1" height="1" fill="#0f172a"/><rect x="22" y="27" width="1" height="1" fill="#0f172a"/><rect x="23" y="27" width="4" height="1" fill="#64748b"/><rect x="27" y="27" width="1" height="1" fill="#0f172a"/><rect x="3" y="28" width="22" height="1" fill="#0f172a"/></svg>