<svg xmlns="http://www.w3.org/2000/svg" viewBox="0 0 32 32" shape-rendering="crispEdges"><rect x="15" y="1" width="1" height="1" fill="#ffffff"/><rect x="15" y="2" width="1" height="1" fill="#ffffff"/><rect x="14" y="3" width="1" height="1" fill="#cbd5e1"/><rect x="15" y="3" width="1" height="1" fill="#ffffff"/><rect x="16" y="3" width="1" height="1" fill="#cbd5e1"/><rect x="14" y="4" width="1" height="1" fill="#cbd5e1"/><rect x="15" y="4" width="1" height="1" fill="#ffffff"/><rect x="16" y="4" width="1" height="1" fill="#cbd5e1"/><rect x="13" y="5" width="2" height="1" fill="#cbd5e1"/><rect x="15" y="5" width="1" height="1" fill="#ffffff"/><rect x="16" y="5" width="2" height="1" fill="#cbd5e1"/><rect x="13" y="6" width="2" height="1" fill="#cbd5e1"/><rect x="15" y="6" width="1" height="1" fill="#ffffff"/><rect x="16" y="6" width="2" height="1" fill="#cbd5e1"/><rect x="12" y="7" width="3" height="1" fill="#cbd5e1"/><rect x="15" y="7" width="1" height="1" fill="#ffffff"/><rect x="16" y="7" width="3" height="1" fill="#cbd5e1"/><rect x="12" y="8" width="3" height="1" fill="#cbd5e1"/><rect x="15" y="8" width="1" height="1" fill="#ffffff"/><rect x="16" y="8" width="3" height="1" fill="#cbd5e1"/><rect x="7" y="9" width="1" height="1" fill="#020617"/><rect x="11" y="9" width="4" height="1" fill="#cbd5e1"/><rect x="15" y="9" width="1" height="1" fill="#ffffff"/><rect x="16" y="9" width="4" height="1" fill="#cbd5e1"/><rect x="23" y="9" width="1" height="1" fill="#020617"/><rect x="6" y="10" width="1" height="1" fill="#020617"/><rect x="7" y="10" width="1" height="1" fill="#475569"/><rect x="8" y="10" width="1" height="1" fill="#020617"/><rect x="11" y="10" width="4" height="1" fill="#cbd5e1"/><rect x="15" y="10" width="1" height="1" fill="#ffffff"/><rect x="16" y="10" width="4" height="1" fill="#cbd5e1"/><rect x="22" y="10" width="1" height="1" fill="#020617"/><rect x="23" y="10" width="1" height="1" fill="#475569"/><rect x="24" y="10" width="1" height="1" fill="#020617"/><rect x="5" y="11" width="1" height="1" fill="#020617"/><rect x="6" y="11" width="3" height="1" fill="#475569"/><rect x="9" y="11" width="1" height="1" fill="#020617"/><rect x="11" y="11" width="4" height="1" fill="#cbd5e1"/><rect x="15" y="11" width="1" height="1" fill="#ffffff"/><rect x="16" y="11" width="4" height="1" fill="#cbd5e1"/><rect x="21" y="11" width="1" height="1" fill="#020617"/><rect x="22" y="11" width="3" height="1" fill="#475569"/><rect x="25" y="11" width="1" height="1" fill="#020617"/><rect x="4" y="12" width="1" height="1" fill="#020617"/><rect x="5" y="12" width="5" height="1" fill="#475569"/><rect x="10" y="12" width="1" height="1" fill="#020617"/><rect x="11" y="12" width="4" height="1" fill="#cbd5e1"/><rect x="15" y="12" width="1" height="1" fill="#ffffff"/><rect x="16" y="12" width="4" height="1" fill="#cbd5e1"/><rect x="20" y="12" width="1" height="1" fill="#020617"/><rect x="21" y="12" width="5" height="1" fill="#475569"/><rect x="26" y="12" width="1" height="1" fill="#020617"/><rect x="4" y="13" width="1" height="1" fill="#020617"/><rect x="5" y="13" width="5" height="1" fill="#475569"/><rect x="10" y="13" width="5" height="1" fill="#cbd5e1"/><rect x="15" y="13" width="1" height="1" fill="#ffffff"/><rect x="16" y="13" width="5" height="1" fill="#cbd5e1"/><rect x="21" y="13" width="5" height="1" fill="#475569"/><rect x="26" y="13" width="1" height="1" fill="#020617"/><rect x="3" y="14" width="1" height="1" fill="#020617"/><rect x="4" y="14" width="7" height="1" fill="#475569"/><rect x="11" y="14" width="4" height="1" fill="#cbd5e1"/><rect x="15" y="14" width="1" height="1" fill="#ffffff"/><rect x="16" y="14" width="4" height="1" fill="#cbd5e1"/><rect x="20" y="14" width="7" height="1" fill="#475569"/><rect x="27" y="14" width="1" height="1" fill="#020617"/><rect x="2" y="15" width="1" height="1" fill="#020617"/><rect x="3" y="15" width="9" height="1" fill="#475569"/><rect x="12" y="15" width="1" height="1" fill="#020617"/><rect x="13" y="15" width="2" height="1" fill="#cbd5e1"/><rect x="15" y="15" width="1" height="1" fill="#ffffff"/><rect x="16" y="15" width="2" height="1" fill="#cbd5e1"/><rect x="18" y="15" width="1" height="1" fill="#020617"/><rect x="19" y="15" width="9" height="1" fill="#475569"/><rect x="28" y="15" width="1" height="1" fill="#020617"/><rect x="1" y="16" width="1" height="1" fill="#020617"/><rect x="2" y="16" width="10" height="1" fill="#475569"/><rect x="12" y="16" width="1" height="1" fill="#020617"/><rect x="13" y="16" width="2" height="1" fill="#cbd5e1"/><rect x="15" y="16" width="1" height="1" fill="#ffffff"/><rect x="16" y="16" width="2" height="1" fill="#cbd5e1"/><rect x="18" y="16" width="1" height="1" fill="#020617"/><rect x="19" y="16" width="10" height="1" fill="#475569"/><rect x="29" y="16" width="1" height="1" fill="#020617"/><rect x="1" y="17" width="1" height="1" fill="#020617"/><rect x="2" y="17" width="10" height="1" fill="#475569"/><rect x="12" y="17" width="1" height="1" fill="#020617"/><rect x="13" y="17" width="2" height="1" fill="#cbd5e1"/><rect x="15" y="17" width="1" height="1" fill="#ffffff"/><rect x="16" y="17" width="2" height="1" fill="#cbd5e1"/><rect x="18" y="17" width="1" height="1" fill="#020617"/><rect x="19" y="17" width="10" height="1" fill="#475569"/><rect x="29" y="17" width="1" height="1" fill="#020617"/><rect x="2" y="18" width="10" height="1" fill="#020617"/><rect x="12" y="18" width="1" height="1" fill="#475569"/><rect x="13" y="18" width="2" height="1" fill="#cbd5e1"/><rect x="15" y="18" width="1" height="1" fill="#ffffff"/><rect x="16" y="18" width="2" height="1" fill="#cbd5e1"/><rect x="18" y="18" width="1" height="1" fill="#475569"/><rect x="19" y="18" width="10" height="1" fill="#020617"/><rect x="3" y="19" width="1" height="1" fill="#020617"/><rect x="4" y="19" width="8" height="1" fill="#1e293b"/><rect x="12" y="19" width="1" height="1" fill="#475569"/><rect x="13" y="19" width="2" height="1" fill="#cbd5e1"/><rect x="15" y="19" width="1" height="1" fill="#ffffff"/><rect x="16" y="19" width="2" height="1" fill="#cbd5e1"/><rect x="18" y="19" width="1" height="1" fill="#475569"/><rect x="19" y="19" width="8" height="1" fill="#1e293b"/><rect x="27" y="19" width="1" height="1" fill="#020617"/><rect x="3" y="20" width="1" height="1" fill="#020617"/><rect x="4" y="20" width="8" height="1" fill="#1e293b"/><rect x="12" y="20" width="1" height="1" fill="#475569"/><rect x="13" y="20" width="2" height="1" fill="#cbd5e1"/><rect x="15" y="20" width="1" height="1" fill="#ffffff"/><rect x="16" y="20" width="2" height="1" fill="#cbd5e1"/><rect x="18" y="20" width="1" height="1" fill="#475569"/><rect x="19" y="20" width="8" height="1" fill="#1e293b"/><rect x="27" y="20" width="1" height="1" fill="#020617"/><rect x="3" y="21" width="1" height="1" fill="#020617"/><rect x="4" y="21" width="8" height="1" fill="#1e293b"/><rect x="12" y="21" width="1" height="1" fill="#475569"/><rect x="13" y="21" width="2" height="1" fill="#cbd5e1"/><rect x="15" y="21" width="1" height="1" fill="#ffffff"/><rect x="16" y="21" width="2" height="1" fill="#cbd5e1"/><rect x="18" y="21" width="1" height="1" fill="#475569"/><rect x="19" y="21" width="8" height="1" fill="#1e293b"/><rect x="27" y="21" width="1" height="1" fill="#020617"/><rect x="3" y="22" width="1" height="1" fill="#020617"/><rect x="4" y="22" width="4" height="1" fill="#1e293b"/><rect x="8" y="22" width="4" height="1" fill="#020617"/><rect x="12" y="22" width="1" height="1" fill="#475569"/><rect x="13" y="22" width="2" height="1" fill="#cbd5e1"/><rect x="15" y="22" width="1" height="1" fill="#ffffff"/><rect x="16" y="22" width="2" height="1" fill="#cbd5e1"/><rect x="18" y="22" width="1" height="1" fill="#475569"/><rect x="19" y="22" width="4" height="1" fill="#020617"/><rect x="23" y="22" width="4" height="1" fill="#1e293b"/><rect x="27" y="22" width="1" height="1" fill="#020617"/><rect x="3" y="23" width="1" height="1" fill="#020617"/><rect x="4" y="23" width="4" height="1" fill="#1e293b"/><rect x="8" y="23" width="1" height="1" fill="#020617"/><rect x="11" y="23" width="1" height="1" fill="#020617"/><rect x="12" y="23" width="1" height="1" fill="#475569"/><rect x="13" y="23" width="2" height="1" fill="#cbd5e1"/><rect x="15" y="23" width="1" height="1" fill="#ffffff"/><rect x="16" y="23" width="2" height="1" fill="#cbd5e1"/><rect x="18" y="23" width="1" height="1" fill="#475569"/><rect x="19" y="23" width="1" height="1" fill="#020617"/><rect x="22" y="23" width="1" height="1" fill="#020617"/><rect x="23" y="23" width="4" height="1" fill="#1e293b"/><rect x="27" y="23" width="1" height="1" fill="#020617"/><rect x="3" y="24" width="1" height="1" fill="#020617"/><rect x="4" y="24" width="4" height="1" fill="#1e293b"/><rect x="8" y="24" width="1" height="1" fill="#020617"/><rect x="11" y="24" width="1" height="1" fill="#020617"/><rect x="12" y="24" width="1" height="1" fill="#475569"/><rect x="13" y="24" width="2" height="1" fill="#020617"/><rect x="15" y="24" width="1" height="1" fill="#ffffff"/><rect x="16" y="24" width="2" height="1" fill="#020617"/><rect x="18" y="24" width="1" height="1" fill="#475569"/><rect x="19" y="24" width="1" height="1" fill="#020617"/><rect x="22" y="24" width="1" height="1" fill="#020617"/><rect x="23" y="24" width="4" height="1" fill="#1e293b"/><rect x="27" y="24" width="1" height="1" fill="#020617"/><rect x="3" y="25" width="1" height="1" fill="#020617"/><rect x="4" y="25" width="4" height="1" fill="#1e293b"/><rect x="8" y="25" width="1" height="1" fill="#020617"/><rect x="11" y="25" width="1" height="1" fill="#020617"/><rect x="12" y="25" width="1" height="1" fill="#475569"/><rect x="18" y="25" width="1" height="1" fill="#475569"/><rect x="19" y="25" width="1" height="1" fill="#020617"/><rect x="22" y="25" width="1" height="1" fill="#020617"/><rect x="23" y="25" width="4" height="1" fill="#1e293b"/><rect x="27" y="25" width="1" height="1" fill="#020617"/><rect x="2" y="26" width="27" height="1" fill="#020617"/><rect x="1" y="27" width="1" height="1" fill="#020617"/><rect x="2" y="27" width="27" height="1" fill="#1e293b"/><rect x="29" y="27" width="1" height="1" fill="#020617"/><rect x="2" y="28" width="27" height="1" fill="#020617"/></svg>