<svg xmlns="http://www.w3.org/2000/svg" viewBox="0 0 32 32" shape-rendering="crispEdges"><rect x="0" y="0" width="5" height="1" fill="#10b981"/><rect x="5" y="0" width="2" height="1" fill="#fde047"/><rect x="7" y="0" width="3" height="1" fill="#f8fafc"/><rect x="10" y="0" width="3" height="1" fill="#cbd5e1"/><rect x="13" y="0" width="3" height="1" fill="#8b5cf6"/><rect x="16" y="0" width="1" height="1" fill="#334155"/><rect x="17" y="0" width="3" height="1" fill="#8b5cf6"/><rect x="20" y="0" width="1" height="1" fill="#cbd5e1"/><rect x="21" y="0" width="5" height="1" fill="#f8fafc"/><rect x="26" y="0" width="1" height="1" fill="#cbd5e1"/><rect x="27" y="0" width="2" height="1" fill="#fde047"/><rect x="29" y="0" width="3" height="1" fill="#334155"/><rect x="0" y="1" width="4" height="1" fill="#10b981"/><rect x="4" y="1" width="1" height="1" fill="#64748b"/><rect x="5" y="1" width="1" height="1" fill="#fde047"/><rect x="6" y="1" width="1" height="1" fill="#cbd5e1"/><rect x="7" y="1" width="5" height="1" fill="#f8fafc"/><rect x="12" y="1" width="2" height="1" fill="#8b5cf6"/><rect x="14" y="1" width="1" height="1" fill="#334155"/><rect x="15" y="1" width="5" height="1" fill="#8b5cf6"/><rect x="20" y="1" width="1" height="1" fill="#cbd5e1"/><rect x="21" y="1" width="5" height="1" fill="#f8fafc"/><rect x="26" y="1" width="1" height="1" fill="#cbd5e1"/><rect x="27" y="1" width="2" height="1" fill="#fde047"/><rect x="29" y="1" width="3" height="1" fill="#334155"/><rect x="0" y="2" width="2" height="1" fill="#334155"/><rect x="2" y="2" width="3" height="1" fill="#64748b"/><rect x="5" y="2" width="1" height="1" fill="#fde047"/><rect x="6" y="2" width="1" height="1" fill="#cbd5e1"/><rect x="7" y="2" width="2" height="1" fill="#f8fafc"/><rect x="9" y="2" width="1" height="1" fill="#cbd5e1"/><rect x="10" y="2" width="2" height="1" fill="#f8fafc"/><rect x="12" y="2" width="1" height="1" fill="#cbd5e1"/><rect x="13" y="2" width="7" height="1" fill="#8b5cf6"/><rect x="20" y="2" width="1" height="1" fill="#cbd5e1"/><rect x="21" y="2" width="3" height="1" fill="#f8fafc"/><rect x="24" y="2" width="1" height="1" fill="#cbd5e1"/><rect x="25" y="2" width="1" height="1" fill="#f8fafc"/><rect x="26" y="2" width="1" height="1" fill="#cbd5e1"/><rect x="27" y="2" width="2" height="1" fill="#fde047"/><rect x="29" y="2" width="1" height="1" fill="#64748b"/><rect x="30" y="2" width="2" height="1" fill="#334155"/><rect x="0" y="3" width="1" height="1" fill="#64748b"/><rect x="1" y="3" width="1" height="1" fill="#334155"/><rect x="2" y="3" width="1" height="1" fill="#64748b"/><rect x="3" y="3" width="1" height="1" fill="#10b981"/><rect x="4" y="3" width="6" height="1" fill="#cbd5e1"/><rect x="10" y="3" width="2" height="1" fill="#f8fafc"/><rect x="12" y="3" width="1" height="1" fill="#cbd5e1"/><rect x="13" y="3" width="3" height="1" fill="#8b5cf6"/><rect x="16" y="3" width="1" height="1" fill="#fbcfe8"/><rect x="17" y="3" width="4" height="1" fill="#8b5cf6"/><rect x="21" y="3" width="1" height="1" fill="#f8fafc"/><rect x="22" y="3" width="1" height="1" fill="#cbd5e1"/><rect x="23" y="3" width="1" height="1" fill="#f8fafc"/><rect x="24" y="3" width="1" height="1" fill="#cbd5e1"/><rect x="25" y="3" width="1" height="1" fill="#f8fafc"/><rect x="26" y="3" width="3" height="1" fill="#cbd5e1"/><rect x="29" y="3" width="1" height="1" fill="#64748b"/><rect x="30" y="3" width="2" height="1" fill="#10b981"/><rect x="0" y="4" width="1" height="1" fill="#64748b"/><rect x="1" y="4" width="1" height="1" fill="#334155"/><rect x="2" y="4" width="2" height="1" fill="#64748b"/><rect x="4" y="4" width="2" height="1" fill="#cbd5e1"/><rect x="6" y="4" width="1" height="1" fill="#f8fafc"/><rect x="7" y="4" width="3" height="1" fill="#cbd5e1"/><rect x="10" y="4" width="1" height="1" fill="#f8fafc"/><rect x="11" y="4" width="2" height="1" fill="#cbd5e1"/><rect x="13" y="4" width="3" height="1" fill="#8b5cf6"/><rect x="16" y="4" width="1" height="1" fill="#cbd5e1"/><rect x="17" y="4" width="1" height="1" fill="#8b5cf6"/><rect x="18" y="4" width="1" height="1" fill="#334155"/><rect x="19" y="4" width="2" height="1" fill="#8b5cf6"/><rect x="21" y="4" width="1" height="1" fill="#f8fafc"/><rect x="22" y="4" width="1" height="1" fill="#cbd5e1"/><rect x="23" y="4" width="1" height="1" fill="#f8fafc"/><rect x="24" y="4" width="1" height="1" fill="#cbd5e1"/><rect x="25" y="4" width="1" height="1" fill="#f8fafc"/><rect x="26" y="4" width="1" height="1" fill="#cbd5e1"/><rect x="27" y="4" width="1" height="1" fill="#fbcfe8"/><rect x="28" y="4" width="1" height="1" fill="#cbd5e1"/><rect x="29" y="4" width="1" height="1" fill="#64748b"/><rect x="30" y="4" width="2" height="1" fill="#334155"/><rect x="0" y="5" width="1" height="1" fill="#f59e0b"/><rect x="1" y="5" width="3" height="1" fill="#64748b"/><rect x="4" y="5" width="1" height="1" fill="#cbd5e1"/><rect x="5" y="5" width="1" height="1" fill="#f8fafc"/><rect x="6" y="5" width="1" height="1" fill="#cbd5e1"/><rect x="7" y="5" width="1" height="1" fill="#f8fafc"/><rect x="8" y="5" width="2" height="1" fill="#cbd5e1"/><rect x="10" y="5" width="2" height="1" fill="#f8fafc"/><rect x="12" y="5" width="9" height="1" fill="#8b5cf6"/><rect x="21" y="5" width="2" height="1" fill="#cbd5e1"/><rect x="23" y="5" width="1" height="1" fill="#f8fafc"/><rect x="24" y="5" width="1" height="1" fill="#cbd5e1"/><rect x="25" y="5" width="1" height="1" fill="#f8fafc"/><rect x="26" y="5" width="3" height="1" fill="#cbd5e1"/><rect x="29" y="5" width="1" height="1" fill="#64748b"/><rect x="30" y="5" width="1" height="1" fill="#334155"/><rect x="31" y="5" width="1" height="1" fill="#64748b"/><rect x="0" y="6" width="1" height="1" fill="#64748b"/><rect x="1" y="6" width="2" height="1" fill="#cbd5e1"/><rect x="3" y="6" width="1" height="1" fill="#64748b"/><rect x="4" y="6" width="3" height="1" fill="#cbd5e1"/><rect x="7" y="6" width="1" height="1" fill="#f8fafc"/><rect x="8" y="6" width="4" height="1" fill="#cbd5e1"/><rect x="12" y="6" width="9" height="1" fill="#8b5cf6"/><rect x="21" y="6" width="2" height="1" fill="#cbd5e1"/><rect x="23" y="6" width="1" height="1" fill="#f8fafc"/><rect x="24" y="6" width="1" height="1" fill="#cbd5e1"/><rect x="25" y="6" width="1" height="1" fill="#f8fafc"/><rect x="26" y="6" width="2" height="1" fill="#cbd5e1"/><rect x="28" y="6" width="1" height="1" fill="#f8fafc"/><rect x="29" y="6" width="1" height="1" fill="#334155"/><rect x="30" y="6" width="2" height="1" fill="#64748b"/><rect x="0" y="7" width="1" height="1" fill="#f97316"/><rect x="1" y="7" width="1" height="1" fill="#64748b"/><rect x="2" y="7" width="4" height="1" fill="#cbd5e1"/><rect x="6" y="7" width="3" height="1" fill="#f8fafc"/><rect x="9" y="7" width="2" height="1" fill="#cbd5e1"/><rect x="11" y="7" width="11" height="1" fill="#8b5cf6"/><rect x="22" y="7" width="1" height="1" fill="#cbd5e1"/><rect x="23" y="7" width="1" height="1" fill="#f8fafc"/><rect x="24" y="7" width="1" height="1" fill="#cbd5e1"/><rect x="25" y="7" width="1" height="1" fill="#f8fafc"/><rect x="26" y="7" width="2" height="1" fill="#cbd5e1"/><rect x="28" y="7" width="1" height="1" fill="#f8fafc"/><rect x="29" y="7" width="1" height="1" fill="#64748b"/><rect x="30" y="7" width="1" height="1" fill="#cbd5e1"/><rect x="31" y="7" width="1" height="1" fill="#64748b"/><rect x="0" y="8" width="1" height="1" fill="#fbcfe8"/><rect x="1" y="8" width="1" height="1" fill="#cbd5e1"/><rect x="2" y="8" width="1" height="1" fill="#64748b"/><rect x="3" y="8" width="3" height="1" fill="#cbd5e1"/><rect x="6" y="8" width="3" height="1" fill="#f8fafc"/><rect x="9" y="8" width="2" height="1" fill="#cbd5e1"/><rect x="11" y="8" width="11" height="1" fill="#8b5cf6"/><rect x="22" y="8" width="2" height="1" fill="#f8fafc"/><rect x="24" y="8" width="1" height="1" fill="#cbd5e1"/><rect x="25" y="8" width="1" height="1" fill="#f8fafc"/><rect x="26" y="8" width="2" height="1" fill="#cbd5e1"/><rect x="28" y="8" width="1" height="1" fill="#f8fafc"/><rect x="29" y="8" width="3" height="1" fill="#cbd5e1"/><rect x="0" y="9" width="1" height="1" fill="#fbcfe8"/><rect x="1" y="9" width="4" height="1" fill="#cbd5e1"/><rect x="5" y="9" width="2" height="1" fill="#f8fafc"/><rect x="7" y="9" width="1" height="1" fill="#cbd5e1"/><rect x="8" y="9" width="1" height="1" fill="#f8fafc"/><rect x="9" y="9" width="1" height="1" fill="#cbd5e1"/><rect x="10" y="9" width="11" height="1" fill="#8b5cf6"/><rect x="21" y="9" width="1" height="1" fill="#334155"/><rect x="22" y="9" width="1" height="1" fill="#cbd5e1"/><rect x="23" y="9" width="1" height="1" fill="#f8fafc"/><rect x="24" y="9" width="4" height="1" fill="#cbd5e1"/><rect x="28" y="9" width="1" height="1" fill="#f8fafc"/><rect x="29" y="9" width="3" height="1" fill="#cbd5e1"/><rect x="0" y="10" width="1" height="1" fill="#64748b"/><rect x="1" y="10" width="3" height="1" fill="#cbd5e1"/><rect x="4" y="10" width="1" height="1" fill="#f8fafc"/><rect x="5" y="10" width="1" height="1" fill="#cbd5e1"/><rect x="6" y="10" width="1" height="1" fill="#f8fafc"/><rect x="7" y="10" width="1" height="1" fill="#fbcfe8"/><rect x="8" y="10" width="1" height="1" fill="#cbd5e1"/><rect x="9" y="10" width="12" height="1" fill="#8b5cf6"/><rect x="21" y="10" width="1" height="1" fill="#334155"/><rect x="22" y="10" width="1" height="1" fill="#cbd5e1"/><rect x="23" y="10" width="2" height="1" fill="#f8fafc"/><rect x="25" y="10" width="1" height="1" fill="#cbd5e1"/><rect x="26" y="10" width="1" height="1" fill="#f8fafc"/><rect x="27" y="10" width="1" height="1" fill="#cbd5e1"/><rect x="28" y="10" width="1" height="1" fill="#f8fafc"/><rect x="29" y="10" width="3" height="1" fill="#cbd5e1"/><rect x="0" y="11" width="1" height="1" fill="#64748b"/><rect x="1" y="11" width="2" height="1" fill="#cbd5e1"/><rect x="3" y="11" width="1" height="1" fill="#f8fafc"/><rect x="4" y="11" width="2" height="1" fill="#cbd5e1"/><rect x="6" y="11" width="1" height="1" fill="#f8fafc"/><rect x="7" y="11" width="1" height="1" fill="#cbd5e1"/><rect x="8" y="11" width="2" height="1" fill="#8b5cf6"/><rect x="10" y="11" width="1" height="1" fill="#334155"/><rect x="11" y="11" width="7" height="1" fill="#8b5cf6"/><rect x="18" y="11" width="1" height="1" fill="#64748b"/><rect x="19" y="11" width="3" height="1" fill="#334155"/><rect x="22" y="11" width="1" height="1" fill="#64748b"/><rect x="23" y="11" width="2" height="1" fill="#f8fafc"/><rect x="25" y="11" width="1" height="1" fill="#cbd5e1"/><rect x="26" y="11" width="1" height="1" fill="#f8fafc"/><rect x="27" y="11" width="5" height="1" fill="#cbd5e1"/><rect x="0" y="12" width="1" height="1" fill="#64748b"/><rect x="1" y="12" width="2" height="1" fill="#cbd5e1"/><rect x="3" y="12" width="1" height="1" fill="#f8fafc"/><rect x="4" y="12" width="1" height="1" fill="#cbd5e1"/><rect x="5" y="12" width="1" height="1" fill="#f8fafc"/><rect x="6" y="12" width="1" height="1" fill="#cbd5e1"/><rect x="7" y="12" width="1" height="1" fill="#64748b"/><rect x="8" y="12" width="2" height="1" fill="#8b5cf6"/><rect x="10" y="12" width="12" height="1" fill="#334155"/><rect x="22" y="12" width="1" height="1" fill="#64748b"/><rect x="23" y="12" width="2" height="1" fill="#f8fafc"/><rect x="25" y="12" width="1" height="1" fill="#cbd5e1"/><rect x="26" y="12" width="1" height="1" fill="#f8fafc"/><rect x="27" y="12" width="2" height="1" fill="#cbd5e1"/><rect x="29" y="12" width="1" height="1" fill="#f8fafc"/><rect x="30" y="12" width="2" height="1" fill="#cbd5e1"/><rect x="0" y="13" width="1" height="1" fill="#64748b"/><rect x="1" y="13" width="1" height="1" fill="#cbd5e1"/><rect x="2" y="13" width="1" height="1" fill="#f8fafc"/><rect x="3" y="13" width="2" height="1" fill="#cbd5e1"/><rect x="5" y="13" width="1" height="1" fill="#64748b"/><rect x="6" y="13" width="1" height="1" fill="#8b5cf6"/><rect x="7" y="13" width="1" height="1" fill="#cbd5e1"/><rect x="8" y="13" width="2" height="1" fill="#64748b"/><rect x="10" y="13" width="2" height="1" fill="#1e293b"/><rect x="12" y="13" width="2" height="1" fill="#334155"/><rect x="14" y="13" width="1" height="1" fill="#1e293b"/><rect x="15" y="13" width="4" height="1" fill="#334155"/><rect x="19" y="13" width="3" height="1" fill="#1e293b"/><rect x="22" y="13" width="1" height="1" fill="#334155"/><rect x="23" y="13" width="1" height="1" fill="#cbd5e1"/><rect x="24" y="13" width="3" height="1" fill="#f8fafc"/><rect x="27" y="13" width="2" height="1" fill="#cbd5e1"/><rect x="29" y="13" width="1" height="1" fill="#f8fafc"/><rect x="30" y="13" width="2" height="1" fill="#cbd5e1"/><rect x="0" y="14" width="1" height="1" fill="#64748b"/><rect x="1" y="14" width="1" height="1" fill="#cbd5e1"/><rect x="2" y="14" width="2" height="1" fill="#f8fafc"/><rect x="4" y="14" width="1" height="1" fill="#cbd5e1"/><rect x="5" y="14" width="1" height="1" fill="#334155"/><rect x="6" y="14" width="1" height="1" fill="#8b5cf6"/><rect x="7" y="14" width="2" height="1" fill="#cbd5e1"/><rect x="9" y="14" width="1" height="1" fill="#64748b"/><rect x="10" y="14" width="1" height="1" fill="#334155"/><rect x="11" y="14" width="9" height="1" fill="#1e293b"/><rect x="20" y="14" width="1" height="1" fill="#64748b"/><rect x="21" y="14" width="2" height="1" fill="#8b5cf6"/><rect x="23" y="14" width="1" height="1" fill="#cbd5e1"/><rect x="24" y="14" width="3" height="1" fill="#f8fafc"/><rect x="27" y="14" width="2" height="1" fill="#cbd5e1"/><rect x="29" y="14" width="1" height="1" fill="#f8fafc"/><rect x="30" y="14" width="2" height="1" fill="#cbd5e1"/><rect x="0" y="15" width="1" height="1" fill="#64748b"/><rect x="1" y="15" width="1" height="1" fill="#cbd5e1"/><rect x="2" y="15" width="1" height="1" fill="#f8fafc"/><rect x="3" y="15" width="1" height="1" fill="#cbd5e1"/><rect x="4" y="15" width="1" height="1" fill="#64748b"/><rect x="5" y="15" width="1" height="1" fill="#334155"/><rect x="6" y="15" width="1" height="1" fill="#64748b"/><rect x="7" y="15" width="2" height="1" fill="#cbd5e1"/><rect x="9" y="15" width="5" height="1" fill="#8b5cf6"/><rect x="14" y="15" width="2" height="1" fill="#334155"/><rect x="16" y="15" width="1" height="1" fill="#64748b"/><rect x="17" y="15" width="1" height="1" fill="#334155"/><rect x="18" y="15" width="1" height="1" fill="#64748b"/><rect x="19" y="15" width="4" height="1" fill="#8b5cf6"/><rect x="23" y="15" width="1" height="1" fill="#64748b"/><rect x="24" y="15" width="1" height="1" fill="#f8fafc"/><rect x="25" y="15" width="1" height="1" fill="#cbd5e1"/><rect x="26" y="15" width="2" height="1" fill="#f8fafc"/><rect x="28" y="15" width="1" height="1" fill="#cbd5e1"/><rect x="29" y="15" width="1" height="1" fill="#f8fafc"/><rect x="30" y="15" width="2" height="1" fill="#cbd5e1"/><rect x="0" y="16" width="2" height="1" fill="#64748b"/><rect x="2" y="16" width="1" height="1" fill="#f8fafc"/><rect x="3" y="16" width="1" height="1" fill="#cbd5e1"/><rect x="4" y="16" width="2" height="1" fill="#334155"/><rect x="6" y="16" width="1" height="1" fill="#64748b"/><rect x="7" y="16" width="1" height="1" fill="#cbd5e1"/><rect x="8" y="16" width="1" height="1" fill="#fbcfe8"/><rect x="9" y="16" width="14" height="1" fill="#8b5cf6"/><rect x="23" y="16" width="1" height="1" fill="#64748b"/><rect x="24" y="16" width="1" height="1" fill="#f8fafc"/><rect x="25" y="16" width="1" height="1" fill="#cbd5e1"/><rect x="26" y="16" width="2" height="1" fill="#f8fafc"/><rect x="28" y="16" width="1" height="1" fill="#cbd5e1"/><rect x="29" y="16" width="1" height="1" fill="#f8fafc"/><rect x="30" y="16" width="1" height="1" fill="#fbcfe8"/><rect x="31" y="16" width="1" height="1" fill="#f97316"/><rect x="0" y="17" width="2" height="1" fill="#64748b"/><rect x="2" y="17" width="1" height="1" fill="#f8fafc"/><rect x="3" y="17" width="1" height="1" fill="#64748b"/><rect x="4" y="17" width="2" height="1" fill="#334155"/><rect x="6" y="17" width="1" height="1" fill="#cbd5e1"/><rect x="7" y="17" width="2" height="1" fill="#fbcfe8"/><rect x="9" y="17" width="14" height="1" fill="#8b5cf6"/><rect x="23" y="17" width="1" height="1" fill="#64748b"/><rect x="24" y="17" width="1" height="1" fill="#f8fafc"/><rect x="25" y="17" width="1" height="1" fill="#cbd5e1"/><rect x="26" y="17" width="2" height="1" fill="#f8fafc"/><rect x="28" y="17" width="1" height="1" fill="#cbd5e1"/><rect x="29" y="17" width="1" height="1" fill="#f8fafc"/><rect x="30" y="17" width="1" height="1" fill="#fbcfe8"/><rect x="31" y="17" width="1" height="1" fill="#8b5cf6"/><rect x="0" y="18" width="1" height="1" fill="#64748b"/><rect x="1" y="18" width="1" height="1" fill="#cbd5e1"/><rect x="2" y="18" width="1" height="1" fill="#f8fafc"/><rect x="3" y="18" width="1" height="1" fill="#64748b"/><rect x="4" y="18" width="2" height="1" fill="#334155"/><rect x="6" y="18" width="3" height="1" fill="#f59e0b"/><rect x="9" y="18" width="15" height="1" fill="#8b5cf6"/><rect x="24" y="18" width="2" height="1" fill="#cbd5e1"/><rect x="26" y="18" width="2" height="1" fill="#f8fafc"/><rect x="28" y="18" width="1" height="1" fill="#cbd5e1"/><rect x="29" y="18" width="1" height="1" fill="#f8fafc"/><rect x="30" y="18" width="1" height="1" fill="#8b5cf6"/><rect x="31" y="18" width="1" height="1" fill="#64748b"/><rect x="0" y="19" width="1" height="1" fill="#64748b"/><rect x="1" y="19" width="1" height="1" fill="#cbd5e1"/><rect x="2" y="19" width="1" height="1" fill="#f8fafc"/><rect x="3" y="19" width="1" height="1" fill="#64748b"/><rect x="4" y="19" width="2" height="1" fill="#334155"/><rect x="6" y="19" width="3" height="1" fill="#64748b"/><rect x="9" y="19" width="15" height="1" fill="#8b5cf6"/><rect x="24" y="19" width="2" height="1" fill="#cbd5e1"/><rect x="26" y="19" width="2" height="1" fill="#f8fafc"/><rect x="28" y="19" width="1" height="1" fill="#cbd5e1"/><rect x="29" y="19" width="3" height="1" fill="#8b5cf6"/><rect x="0" y="20" width="1" height="1" fill="#64748b"/><rect x="1" y="20" width="1" height="1" fill="#cbd5e1"/><rect x="2" y="20" width="1" height="1" fill="#f8fafc"/><rect x="3" y="20" width="1" height="1" fill="#64748b"/><rect x="4" y="20" width="3" height="1" fill="#334155"/><rect x="7" y="20" width="1" height="1" fill="#64748b"/><rect x="8" y="20" width="16" height="1" fill="#8b5cf6"/><rect x="24" y="20" width="2" height="1" fill="#cbd5e1"/><rect x="26" y="20" width="2" height="1" fill="#f8fafc"/><rect x="28" y="20" width="1" height="1" fill="#cbd5e1"/><rect x="29" y="20" width="2" height="1" fill="#8b5cf6"/><rect x="31" y="20" width="1" height="1" fill="#334155"/><rect x="0" y="21" width="1" height="1" fill="#64748b"/><rect x="1" y="21" width="2" height="1" fill="#cbd5e1"/><rect x="3" y="21" width="5" height="1" fill="#334155"/><rect x="8" y="21" width="16" height="1" fill="#8b5cf6"/><rect x="24" y="21" width="2" height="1" fill="#cbd5e1"/><rect x="26" y="21" width="2" height="1" fill="#f8fafc"/><rect x="28" y="21" width="1" height="1" fill="#cbd5e1"/><rect x="29" y="21" width="2" height="1" fill="#334155"/><rect x="31" y="21" width="1" height="1" fill="#1e293b"/><rect x="0" y="22" width="1" height="1" fill="#64748b"/><rect x="1" y="22" width="2" height="1" fill="#cbd5e1"/><rect x="3" y="22" width="5" height="1" fill="#334155"/><rect x="8" y="22" width="16" height="1" fill="#8b5cf6"/><rect x="24" y="22" width="2" height="1" fill="#cbd5e1"/><rect x="26" y="22" width="2" height="1" fill="#f8fafc"/><rect x="28" y="22" width="1" height="1" fill="#cbd5e1"/><rect x="29" y="22" width="1" height="1" fill="#64748b"/><rect x="30" y="22" width="1" height="1" fill="#334155"/><rect x="31" y="22" width="1" height="1" fill="#1e293b"/><rect x="0" y="23" width="1" height="1" fill="#334155"/><rect x="1" y="23" width="1" height="1" fill="#64748b"/><rect x="2" y="23" width="1" height="1" fill="#cbd5e1"/><rect x="3" y="23" width="3" height="1" fill="#334155"/><rect x="6" y="23" width="1" height="1" fill="#64748b"/><rect x="7" y="23" width="1" height="1" fill="#334155"/><rect x="8" y="23" width="16" height="1" fill="#8b5cf6"/><rect x="24" y="23" width="2" height="1" fill="#cbd5e1"/><rect x="26" y="23" width="2" height="1" fill="#f8fafc"/><rect x="28" y="23" width="1" height="1" fill="#cbd5e1"/><rect x="29" y="23" width="1" height="1" fill="#64748b"/><rect x="30" y="23" width="1" height="1" fill="#334155"/><rect x="31" y="23" width="1" height="1" fill="#1e293b"/><rect x="0" y="24" width="1" height="1" fill="#1e293b"/><rect x="1" y="24" width="1" height="1" fill="#64748b"/><rect x="2" y="24" width="1" height="1" fill="#cbd5e1"/><rect x="3" y="24" width="3" height="1" fill="#334155"/><rect x="6" y="24" width="2" height="1" fill="#64748b"/><rect x="8" y="24" width="16" height="1" fill="#8b5cf6"/><rect x="24" y="24" width="2" height="1" fill="#cbd5e1"/><rect x="26" y="24" width="3" height="1" fill="#f8fafc"/><rect x="29" y="24" width="1" height="1" fill="#64748b"/><rect x="30" y="24" width="1" height="1" fill="#334155"/><rect x="31" y="24" width="1" height="1" fill="#1e293b"/><rect x="0" y="25" width="1" height="1" fill="#1e293b"/><rect x="1" y="25" width="2" height="1" fill="#cbd5e1"/><rect x="3" y="25" width="3" height="1" fill="#334155"/><rect x="6" y="25" width="2" height="1" fill="#64748b"/><rect x="8" y="25" width="16" height="1" fill="#8b5cf6"/><rect x="24" y="25" width="2" height="1" fill="#cbd5e1"/><rect x="26" y="25" width="3" height="1" fill="#f8fafc"/><rect x="29" y="25" width="1" height="1" fill="#cbd5e1"/><rect x="30" y="25" width="1" height="1" fill="#334155"/><rect x="31" y="25" width="1" height="1" fill="#1e293b"/><rect x="0" y="26" width="1" height="1" fill="#1e293b"/><rect x="1" y="26" width="2" height="1" fill="#cbd5e1"/><rect x="3" y="26" width="4" height="1" fill="#334155"/><rect x="7" y="26" width="1" height="1" fill="#64748b"/><rect x="8" y="26" width="17" height="1" fill="#8b5cf6"/><rect x="25" y="26" width="1" height="1" fill="#cbd5e1"/><rect x="26" y="26" width="4" height="1" fill="#f8fafc"/><rect x="30" y="26" width="1" height="1" fill="#64748b"/><rect x="31" y="26" width="1" height="1" fill="#1e293b"/><rect x="0" y="27" width="1" height="1" fill="#64748b"/><rect x="1" y="27" width="1" height="1" fill="#f8fafc"/><rect x="2" y="27" width="1" height="1" fill="#cbd5e1"/><rect x="3" y="27" width="2" height="1" fill="#334155"/><rect x="5" y="27" width="1" height="1" fill="#64748b"/><rect x="6" y="27" width="1" height="1" fill="#334155"/><rect x="7" y="27" width="18" height="1" fill="#8b5cf6"/><rect x="25" y="27" width="1" height="1" fill="#cbd5e1"/><rect x="26" y="27" width="4" height="1" fill="#f8fafc"/><rect x="30" y="27" width="1" height="1" fill="#64748b"/><rect x="31" y="27" width="1" height="1" fill="#1e293b"/><rect x="0" y="28" width="1" height="1" fill="#64748b"/><rect x="1" y="28" width="2" height="1" fill="#f8fafc"/><rect x="3" y="28" width="1" height="1" fill="#64748b"/><rect x="4" y="28" width="1" height="1" fill="#334155"/><rect x="5" y="28" width="1" height="1" fill="#64748b"/><rect x="6" y="28" width="1" height="1" fill="#334155"/><rect x="7" y="28" width="17" height="1" fill="#8b5cf6"/><rect x="24" y="28" width="1" height="1" fill="#64748b"/><rect x="25" y="28" width="1" height="1" fill="#cbd5e1"/><rect x="26" y="28" width="4" height="1" fill="#f8fafc"/><rect x="30" y="28" width="1" height="1" fill="#64748b"/><rect x="31" y="28" width="1" height="1" fill="#1e293b"/><rect x="0" y="29" width="1" height="1" fill="#cbd5e1"/><rect x="1" y="29" width="2" height="1" fill="#f8fafc"/><rect x="3" y="29" width="1" height="1" fill="#64748b"/><rect x="4" y="29" width="1" height="1" fill="#334155"/><rect x="5" y="29" width="1" height="1" fill="#64748b"/><rect x="6" y="29" width="1" height="1" fill="#334155"/><rect x="7" y="29" width="17" height="1" fill="#8b5cf6"/><rect x="24" y="29" width="1" height="1" fill="#64748b"/><rect x="25" y="29" width="1" height="1" fill="#cbd5e1"/><rect x="26" y="29" width="4" height="1" fill="#f8fafc"/><rect x="30" y="29" width="1" height="1" fill="#cbd5e1"/><rect x="31" y="29" width="1" height="1" fill="#64748b"/><rect x="0" y="30" width="1" height="1" fill="#cbd5e1"/><rect x="1" y="30" width="2" height="1" fill="#f8fafc"/><rect x="3" y="30" width="1" height="1" fill="#64748b"/><rect x="4" y="30" width="1" height="1" fill="#334155"/><rect x="5" y="30" width="1" height="1" fill="#64748b"/><rect x="6" y="30" width="1" height="1" fill="#334155"/><rect x="7" y="30" width="17" height="1" fill="#8b5cf6"/><rect x="24" y="30" width="1" height="1" fill="#64748b"/><rect x="25" y="30" width="1" height="1" fill="#cbd5e1"/><rect x="26" y="30" width="4" height="1" fill="#f8fafc"/><rect x="30" y="30" width="2" height="1" fill="#cbd5e1"/><rect x="0" y="31" width="1" height="1" fill="#cbd5e1"/><rect x="1" y="31" width="2" height="1" fill="#f8fafc"/><rect x="3" y="31" width="1" height="1" fill="#cbd5e1"/><rect x="4" y="31" width="1" height="1" fill="#64748b"/><rect x="5" y="31" width="2" height="1" fill="#334155"/><rect x="7" y="31" width="17" height="1" fill="#8b5cf6"/><rect x="24" y="31" width="1" height="1" fill="#64748b"/><rect x="25" y="31" width="1" height="1" fill="#cbd5e1"/><rect x="26" y="31" width="4" height="1" fill="#f8fafc"/><rect x="30" y="31" width="2" height="1" fill="#cbd5e1"/></svg>