<svg xmlns="http://www.w3.org/2000/svg" viewBox="0 0 32 32" shape-rendering="crispEdges"><rect x="0" y="0" width="32" height="1" fill="#081824"/><rect x="0" y="1" width="32" height="1" fill="#081824"/><rect x="0" y="2" width="32" height="1" fill="#081824"/><rect x="0" y="3" width="32" height="1" fill="#081824"/><rect x="0" y="4" width="32" height="1" fill="#081824"/><rect x="0" y="5" width="32" height="1" fill="#081824"/><rect x="0" y="6" width="14" height="1" fill="#081824"/><rect x="14" y="6" width="4" height="1" fill="#38bdf8"/><rect x="18" y="6" width="14" height="1" fill="#081824"/><rect x="0" y="7" width="14" height="1" fill="#081824"/><rect x="14" y="7" width="4" height="1" fill="#38bdf8"/><rect x="18" y="7" width="14" height="1" fill="#081824"/><rect x="0" y="8" width="14" height="1" fill="#081824"/><rect x="14" y="8" width="4" height="1" fill="#38bdf8"/><rect x="18" y="8" width="14" height="1" fill="#081824"/><rect x="0" y="9" width="14" height="1" fill="#081824"/><rect x="14" y="9" width="4" height="1" fill="#38bdf8"/><rect x="18" y="9" width="14" height="1" fill="#081824"/><rect x="0" y="10" width="14" height="1" fill="#081824"/><rect x="14" y="10" width="4" height="1" fill="#38bdf8"/><rect x="18" y="10" width="14" height="1" fill="#081824"/><rect x="0" y="11" width="14" height="1" fill="#081824"/><rect x="14" y="11" width="4" height="1" fill="#38bdf8"/><rect x="18" y="11" width="14" height="1" fill="#081824"/><rect x="0" y="12" width="10" height="1" fill="#081824"/><rect x="10" y="12" width="12" height="1" fill="#bae6fd"/><rect x="22" y="12" width="10" height="1" fill="#081824"/><rect x="0" y="13" width="10" height="1" fill="#081824"/><rect x="10" y="13" width="12" height="1" fill="#bae6fd"/><rect x="22" y="13" width="10" height="1" fill="#081824"/><rect x="0" y="14" width="10" height="1" fill="#081824"/><rect x="10" y="14" width="12" height="1" fill="#bae6fd"/><rect x="22" y="14" width="10" height="1" fill="#081824"/><rect x="0" y="15" width="10" height="1" fill="#081824"/><rect x="10" y="15" width="12" height="1" fill="#bae6fd"/><rect x="22" y="15" width="10" height="1" fill="#081824"/><rect x="0" y="16" width="10" height="1" fill="#081824"/><rect x="10" y="16" width="12" height="1" fill="#bae6fd"/><rect x="22" y="16" width="10" height="1" fill="#081824"/><rect x="0" y="17" width="10" height="1" fill="#081824"/><rect x="10" y="17" width="12" height="1" fill="#bae6fd"/><rect x="22" y="17" width="10" height="1" fill="#081824"/><rect x="0" y="18" width="10" height="1" fill="#081824"/><rect x="10" y="18" width="12" height="1" fill="#bae6fd"/><rect x="22" y="18" width="10" height="1" fill="#081824"/><rect x="0" y="19" width="10" height="1" fill="#081824"/><rect x="10" y="19" width="12" height="1" fill="#bae6fd"/><rect x="22" y="19" width="10" height="1" fill="#081824"/><rect x="0" y="20" width="6" height="1" fill="#081824"/><rect x="6" y="20" width="20" height="1" fill="#0284c7"/><rect x="26" y="20" width="6" height="1" fill="#081824"/><rect x="0" y="21" width="6" height="1" fill="#081824"/><rect x="6" y="21" width="20" height="1" fill="#0284c7"/><rect x="26" y="21" width="6" height="1" fill="#081824"/><rect x="0" y="22" width="6" height="1" fill="#081824"/><rect x="6" y="22" width="20" height="1" fill="#0284c7"/><rect x="26" y="22" width="6" height="1" fill="#081824"/><rect x="0" y="23" width="6" height="1" fill="#081824"/><rect x="6" y="23" width="20" height="1" fill="#0284c7"/><rect x="26" y="23" width="6" height="1" fill="#081824"/><rect x="0" y="24" width="6" height="1" fill="#081824"/><rect x="6" y="24" width="20" height="1" fill="#0284c7"/><rect x="26" y="24" width="6" height="1" fill="#081824"/><rect x="0" y="25" width="6" height="1" fill="#081824"/><rect x="6" y="25" width="20" height="1" fill="#0284c7"/><rect x="26" y="25" width="6" height="1" fill="#081824"/><rect x="0" y="26" width="32" height="1" fill="#081824"/><rect x="0" y="27" width="32" height="1" fill="#081824"/><rect x="0" y="28" width="32" height="1" fill="#081824"/><rect x="0" y="29" width="32" height="1" fill="#081824"/><rect x="0" y="30" width="32" height="1" fill="#081824"/><rect x="0" y="31" width="32" height="1" fill="#081824"/></svg>