<svg xmlns="http://www.w3.org/2000/svg" viewBox="0 0 32 32" shape-rendering="crispEdges">
  <rect x="0" y="0" width="32" height="32" fill="#3b0764"/>
  <!-- Crossed Holy Rapiers -->
  <rect x="4" y="4" width="2" height="2" fill="#f8fafc"/>
  <rect x="6" y="6" width="2" height="2" fill="#f8fafc"/>
  <rect x="8" y="8" width="2" height="2" fill="#f8fafc"/>
  <rect x="10" y="10" width="2" height="2" fill="#f8fafc"/>
  <rect x="12" y="12" width="8" height="8" fill="#fbbf24"/>
  <rect x="20" y="20" width="2" height="2" fill="#f8fafc"/>
  <rect x="22" y="22" width="2" height="2" fill="#f8fafc"/>
  <rect x="24" y="24" width="2" height="2" fill="#f8fafc"/>
  <rect x="26" y="26" width="2" height="2" fill="#fbbf24"/>
  <!-- Opposite Diagonal Blade -->
  <rect x="26" y="4" width="2" height="2" fill="#f8fafc"/>
  <rect x="24" y="6" width="2" height="2" fill="#f8fafc"/>
  <rect x="22" y="8" width="2" height="2" fill="#f8fafc"/>
  <rect x="20" y="10" width="2" height="2" fill="#f8fafc"/>
  <rect x="10" y="20" width="2" height="2" fill="#f8fafc"/>
  <rect x="8" y="22" width="2" height="2" fill="#f8fafc"/>
  <rect x="6" y="24" width="2" height="2" fill="#f8fafc"/>
  <rect x="4" y="26" width="2" height="2" fill="#fbbf24"/>
  <!-- Central Celestial Cross/Crown -->
  <rect x="14" y="10" width="4" height="12" fill="#f59e0b"/>
  <rect x="10" y="14" width="12" height="4" fill="#f59e0b"/>
  <rect x="15" y="15" width="2" height="2" fill="#fef08a"/>
</svg>