<svg xmlns="http://www.w3.org/2000/svg" viewBox="0 0 32 32" shape-rendering="crispEdges"><rect x="8" y="0" width="2" height="1" fill="#fbbf24"/><rect x="11" y="0" width="4" height="1" fill="#ef4444"/><rect x="16" y="0" width="2" height="1" fill="#fbbf24"/><rect x="7" y="1" width="3" height="1" fill="#fbbf24"/><rect x="10" y="1" width="6" height="1" fill="#ef4444"/><rect x="16" y="1" width="3" height="1" fill="#fbbf24"/><rect x="6" y="2" width="3" height="1" fill="#fbbf24"/><rect x="9" y="2" width="8" height="1" fill="#ef4444"/><rect x="17" y="2" width="3" height="1" fill="#fbbf24"/><rect x="6" y="3" width="1" height="1" fill="#fbbf24"/><rect x="7" y="3" width="12" height="1" fill="#ef4444"/><rect x="19" y="3" width="1" height="1" fill="#fbbf24"/><rect x="5" y="4" width="1" height="1" fill="#fbbf24"/><rect x="6" y="4" width="3" height="1" fill="#ef4444"/><rect x="9" y="4" width="8" height="1" fill="#fed7aa"/><rect x="17" y="4" width="3" height="1" fill="#ef4444"/><rect x="20" y="4" width="1" height="1" fill="#fbbf24"/><rect x="5" y="5" width="1" height="1" fill="#fbbf24"/><rect x="6" y="5" width="2" height="1" fill="#ef4444"/><rect x="8" y="5" width="10" height="1" fill="#fed7aa"/><rect x="18" y="5" width="2" height="1" fill="#ef4444"/><rect x="20" y="5" width="1" height="1" fill="#fbbf24"/><rect x="5" y="6" width="1" height="1" fill="#fbbf24"/><rect x="6" y="6" width="1" height="1" fill="#ef4444"/><rect x="7" y="6" width="2" height="1" fill="#fed7aa"/><rect x="9" y="6" width="1" height="1" fill="#0f172a"/><rect x="10" y="6" width="6" height="1" fill="#fed7aa"/><rect x="16" y="6" width="1" height="1" fill="#0f172a"/><rect x="17" y="6" width="2" height="1" fill="#fed7aa"/><rect x="19" y="6" width="1" height="1" fill="#ef4444"/><rect x="20" y="6" width="1" height="1" fill="#fbbf24"/><rect x="5" y="7" width="1" height="1" fill="#fbbf24"/><rect x="6" y="7" width="1" height="1" fill="#ef4444"/><rect x="7" y="7" width="12" height="1" fill="#fed7aa"/><rect x="19" y="7" width="1" height="1" fill="#ef4444"/><rect x="20" y="7" width="1" height="1" fill="#fbbf24"/><rect x="5" y="8" width="1" height="1" fill="#fbbf24"/><rect x="6" y="8" width="1" height="1" fill="#ef4444"/><rect x="7" y="8" width="12" height="1" fill="#fed7aa"/><rect x="19" y="8" width="1" height="1" fill="#ef4444"/><rect x="20" y="8" width="1" height="1" fill="#fbbf24"/><rect x="6" y="9" width="1" height="1" fill="#ef4444"/><rect x="7" y="9" width="12" height="1" fill="#fed7aa"/><rect x="19" y="9" width="1" height="1" fill="#ef4444"/><rect x="7" y="10" width="1" height="1" fill="#ef4444"/><rect x="8" y="10" width="10" height="1" fill="#fed7aa"/><rect x="18" y="10" width="1" height="1" fill="#ef4444"/><rect x="8" y="11" width="10" height="1" fill="#ef4444"/><rect x="6" y="12" width="14" height="1" fill="#b45309"/><rect x="5" y="13" width="16" height="1" fill="#b45309"/><rect x="4" y="14" width="18" height="1" fill="#b45309"/><rect x="3" y="15" width="1" height="1" fill="#fbbf24"/><rect x="4" y="15" width="6" height="1" fill="#b45309"/><rect x="10" y="15" width="1" height="1" fill="#78350f"/><rect x="11" y="15" width="4" height="1" fill="#fbbf24"/><rect x="15" y="15" width="1" height="1" fill="#78350f"/><rect x="16" y="15" width="5" height="1" fill="#b45309"/><rect x="21" y="15" width="1" height="1" fill="#fbbf24"/><rect x="2" y="16" width="2" height="1" fill="#fbbf24"/><rect x="4" y="16" width="6" height="1" fill="#b45309"/><rect x="10" y="16" width="1" height="1" fill="#78350f"/><rect x="11" y="16" width="4" height="1" fill="#fbbf24"/><rect x="15" y="16" width="1" height="1" fill="#78350f"/><rect x="16" y="16" width="5" height="1" fill="#b45309"/><rect x="21" y="16" width="2" height="1" fill="#fbbf24"/><rect x="2" y="17" width="2" height="1" fill="#fbbf24"/><rect x="4" y="17" width="6" height="1" fill="#b45309"/><rect x="10" y="17" width="1" height="1" fill="#78350f"/><rect x="11" y="17" width="4" height="1" fill="#fbbf24"/><rect x="15" y="17" width="1" height="1" fill="#78350f"/><rect x="16" y="17" width="5" height="1" fill="#b45309"/><rect x="21" y="17" width="2" height="1" fill="#fbbf24"/><rect x="3" y="18" width="1" height="1" fill="#fbbf24"/><rect x="4" y="18" width="6" height="1" fill="#b45309"/><rect x="10" y="18" width="6" height="1" fill="#78350f"/><rect x="16" y="18" width="5" height="1" fill="#b45309"/><rect x="21" y="18" width="1" height="1" fill="#fbbf24"/><rect x="4" y="19" width="18" height="1" fill="#b45309"/><rect x="4" y="20" width="18" height="1" fill="#b45309"/><rect x="5" y="21" width="16" height="1" fill="#b45309"/><rect x="5" y="22" width="16" height="1" fill="#b45309"/><rect x="5" y="23" width="16" height="1" fill="#b45309"/><rect x="6" y="24" width="14" height="1" fill="#b45309"/><rect x="6" y="25" width="14" height="1" fill="#b45309"/><rect x="6" y="26" width="4" height="1" fill="#b45309"/><rect x="16" y="26" width="4" height="1" fill="#b45309"/><rect x="6" y="27" width="4" height="1" fill="#b45309"/><rect x="16" y="27" width="4" height="1" fill="#b45309"/><rect x="6" y="28" width="4" height="1" fill="#b45309"/><rect x="16" y="28" width="4" height="1" fill="#b45309"/><rect x="6" y="29" width="4" height="1" fill="#b45309"/><rect x="16" y="29" width="4" height="1" fill="#b45309"/><rect x="6" y="30" width="4" height="1" fill="#b45309"/><rect x="16" y="30" width="4" height="1" fill="#b45309"/></svg>