<svg xmlns="http://www.w3.org/2000/svg" viewBox="0 0 32 32" shape-rendering="crispEdges"><rect x="0" y="0" width="3" height="1" fill="#ffffff"/><rect x="3" y="0" width="1" height="1" fill="#d8b4fe"/><rect x="4" y="0" width="2" height="1" fill="#52525b"/><rect x="6" y="0" width="1" height="1" fill="#27272a"/><rect x="7" y="0" width="4" height="1" fill="#52525b"/><rect x="11" y="0" width="2" height="1" fill="#d8b4fe"/><rect x="13" y="0" width="1" height="1" fill="#a1a1aa"/><rect x="14" y="0" width="3" height="1" fill="#fef08a"/><rect x="17" y="0" width="2" height="1" fill="#fdba74"/><rect x="19" y="0" width="1" height="1" fill="#fef08a"/><rect x="20" y="0" width="2" height="1" fill="#fdba74"/><rect x="22" y="0" width="1" height="1" fill="#a1a1aa"/><rect x="23" y="0" width="9" height="1" fill="#52525b"/><rect x="0" y="1" width="4" height="1" fill="#ffffff"/><rect x="4" y="1" width="1" height="1" fill="#a1a1aa"/><rect x="5" y="1" width="6" height="1" fill="#52525b"/><rect x="11" y="1" width="1" height="1" fill="#d8b4fe"/><rect x="12" y="1" width="7" height="1" fill="#a1a1aa"/><rect x="19" y="1" width="1" height="1" fill="#fdba74"/><rect x="20" y="1" width="2" height="1" fill="#fef08a"/><rect x="22" y="1" width="1" height="1" fill="#a1a1aa"/><rect x="23" y="1" width="9" height="1" fill="#52525b"/><rect x="0" y="2" width="4" height="1" fill="#ffffff"/><rect x="4" y="2" width="1" height="1" fill="#a1a1aa"/><rect x="5" y="2" width="6" height="1" fill="#52525b"/><rect x="11" y="2" width="1" height="1" fill="#d8b4fe"/><rect x="12" y="2" width="1" height="1" fill="#a1a1aa"/><rect x="13" y="2" width="1" height="1" fill="#fef08a"/><rect x="14" y="2" width="1" height="1" fill="#fdba74"/><rect x="15" y="2" width="3" height="1" fill="#a1a1aa"/><rect x="18" y="2" width="1" height="1" fill="#fef08a"/><rect x="19" y="2" width="3" height="1" fill="#a1a1aa"/><rect x="22" y="2" width="6" height="1" fill="#52525b"/><rect x="28" y="2" width="1" height="1" fill="#a1a1aa"/><rect x="29" y="2" width="3" height="1" fill="#52525b"/><rect x="0" y="3" width="4" height="1" fill="#ffffff"/><rect x="4" y="3" width="1" height="1" fill="#a1a1aa"/><rect x="5" y="3" width="6" height="1" fill="#52525b"/><rect x="11" y="3" width="2" height="1" fill="#a1a1aa"/><rect x="13" y="3" width="1" height="1" fill="#fef08a"/><rect x="14" y="3" width="1" height="1" fill="#fdba74"/><rect x="15" y="3" width="1" height="1" fill="#fef08a"/><rect x="16" y="3" width="2" height="1" fill="#fdba74"/><rect x="18" y="3" width="1" height="1" fill="#fef08a"/><rect x="19" y="3" width="2" height="1" fill="#a1a1aa"/><rect x="21" y="3" width="1" height="1" fill="#fdba74"/><rect x="22" y="3" width="6" height="1" fill="#52525b"/><rect x="28" y="3" width="1" height="1" fill="#a1a1aa"/><rect x="29" y="3" width="3" height="1" fill="#52525b"/><rect x="0" y="4" width="4" height="1" fill="#ffffff"/><rect x="4" y="4" width="1" height="1" fill="#a1a1aa"/><rect x="5" y="4" width="7" height="1" fill="#52525b"/><rect x="12" y="4" width="1" height="1" fill="#a1a1aa"/><rect x="13" y="4" width="6" height="1" fill="#fef08a"/><rect x="19" y="4" width="1" height="1" fill="#fdba74"/><rect x="20" y="4" width="1" height="1" fill="#fef08a"/><rect x="21" y="4" width="2" height="1" fill="#a1a1aa"/><rect x="23" y="4" width="4" height="1" fill="#52525b"/><rect x="27" y="4" width="1" height="1" fill="#27272a"/><rect x="28" y="4" width="4" height="1" fill="#52525b"/><rect x="0" y="5" width="4" height="1" fill="#ffffff"/><rect x="4" y="5" width="1" height="1" fill="#a1a1aa"/><rect x="5" y="5" width="4" height="1" fill="#52525b"/><rect x="9" y="5" width="1" height="1" fill="#a1a1aa"/><rect x="10" y="5" width="2" height="1" fill="#52525b"/><rect x="12" y="5" width="1" height="1" fill="#a1a1aa"/><rect x="13" y="5" width="1" height="1" fill="#fdba74"/><rect x="14" y="5" width="2" height="1" fill="#fef08a"/><rect x="16" y="5" width="1" height="1" fill="#fdba74"/><rect x="17" y="5" width="2" height="1" fill="#fef08a"/><rect x="19" y="5" width="1" height="1" fill="#fdba74"/><rect x="20" y="5" width="2" height="1" fill="#fef08a"/><rect x="22" y="5" width="4" height="1" fill="#52525b"/><rect x="26" y="5" width="2" height="1" fill="#27272a"/><rect x="28" y="5" width="1" height="1" fill="#52525b"/><rect x="29" y="5" width="3" height="1" fill="#27272a"/><rect x="0" y="6" width="4" height="1" fill="#ffffff"/><rect x="4" y="6" width="1" height="1" fill="#93c5fd"/><rect x="5" y="6" width="3" height="1" fill="#52525b"/><rect x="8" y="6" width="1" height="1" fill="#a1a1aa"/><rect x="9" y="6" width="3" height="1" fill="#52525b"/><rect x="12" y="6" width="1" height="1" fill="#a1a1aa"/><rect x="13" y="6" width="2" height="1" fill="#fef08a"/><rect x="15" y="6" width="1" height="1" fill="#fdba74"/><rect x="16" y="6" width="2" height="1" fill="#fef08a"/><rect x="18" y="6" width="1" height="1" fill="#fdba74"/><rect x="19" y="6" width="2" height="1" fill="#fef08a"/><rect x="21" y="6" width="1" height="1" fill="#a1a1aa"/><rect x="22" y="6" width="2" height="1" fill="#52525b"/><rect x="24" y="6" width="2" height="1" fill="#27272a"/><rect x="26" y="6" width="6" height="1" fill="#52525b"/><rect x="0" y="7" width="1" height="1" fill="#f4f4f5"/><rect x="1" y="7" width="3" height="1" fill="#ffffff"/><rect x="4" y="7" width="1" height="1" fill="#93c5fd"/><rect x="5" y="7" width="3" height="1" fill="#52525b"/><rect x="8" y="7" width="2" height="1" fill="#a1a1aa"/><rect x="10" y="7" width="1" height="1" fill="#52525b"/><rect x="11" y="7" width="1" height="1" fill="#27272a"/><rect x="12" y="7" width="1" height="1" fill="#a1a1aa"/><rect x="13" y="7" width="1" height="1" fill="#fdba74"/><rect x="14" y="7" width="2" height="1" fill="#a1a1aa"/><rect x="16" y="7" width="2" height="1" fill="#d8b4fe"/><rect x="18" y="7" width="1" height="1" fill="#fef08a"/><rect x="19" y="7" width="1" height="1" fill="#fdba74"/><rect x="20" y="7" width="1" height="1" fill="#fef08a"/><rect x="21" y="7" width="1" height="1" fill="#a1a1aa"/><rect x="22" y="7" width="6" height="1" fill="#52525b"/><rect x="28" y="7" width="1" height="1" fill="#a1a1aa"/><rect x="29" y="7" width="2" height="1" fill="#52525b"/><rect x="31" y="7" width="1" height="1" fill="#a1a1aa"/><rect x="0" y="8" width="3" height="1" fill="#f4f4f5"/><rect x="3" y="8" width="1" height="1" fill="#ffffff"/><rect x="4" y="8" width="1" height="1" fill="#93c5fd"/><rect x="5" y="8" width="2" height="1" fill="#52525b"/><rect x="7" y="8" width="3" height="1" fill="#a1a1aa"/><rect x="10" y="8" width="3" height="1" fill="#52525b"/><rect x="13" y="8" width="4" height="1" fill="#fef08a"/><rect x="17" y="8" width="2" height="1" fill="#f4f4f5"/><rect x="19" y="8" width="4" height="1" fill="#a1a1aa"/><rect x="23" y="8" width="5" height="1" fill="#52525b"/><rect x="28" y="8" width="4" height="1" fill="#a1a1aa"/><rect x="0" y="9" width="4" height="1" fill="#f4f4f5"/><rect x="4" y="9" width="1" height="1" fill="#93c5fd"/><rect x="5" y="9" width="2" height="1" fill="#52525b"/><rect x="7" y="9" width="3" height="1" fill="#a1a1aa"/><rect x="10" y="9" width="3" height="1" fill="#52525b"/><rect x="13" y="9" width="3" height="1" fill="#fef08a"/><rect x="16" y="9" width="3" height="1" fill="#a1a1aa"/><rect x="19" y="9" width="1" height="1" fill="#fef08a"/><rect x="20" y="9" width="1" height="1" fill="#fdba74"/><rect x="21" y="9" width="2" height="1" fill="#a1a1aa"/><rect x="23" y="9" width="5" height="1" fill="#52525b"/><rect x="28" y="9" width="4" height="1" fill="#a1a1aa"/><rect x="0" y="10" width="4" height="1" fill="#f4f4f5"/><rect x="4" y="10" width="1" height="1" fill="#93c5fd"/><rect x="5" y="10" width="2" height="1" fill="#52525b"/><rect x="7" y="10" width="4" height="1" fill="#a1a1aa"/><rect x="11" y="10" width="2" height="1" fill="#52525b"/><rect x="13" y="10" width="3" height="1" fill="#fef08a"/><rect x="16" y="10" width="1" height="1" fill="#a1a1aa"/><rect x="17" y="10" width="2" height="1" fill="#52525b"/><rect x="19" y="10" width="1" height="1" fill="#fef08a"/><rect x="20" y="10" width="1" height="1" fill="#fdba74"/><rect x="21" y="10" width="2" height="1" fill="#a1a1aa"/><rect x="23" y="10" width="5" height="1" fill="#52525b"/><rect x="28" y="10" width="4" height="1" fill="#a1a1aa"/><rect x="0" y="11" width="4" height="1" fill="#f4f4f5"/><rect x="4" y="11" width="1" height="1" fill="#93c5fd"/><rect x="5" y="11" width="2" height="1" fill="#52525b"/><rect x="7" y="11" width="2" height="1" fill="#a1a1aa"/><rect x="9" y="11" width="1" height="1" fill="#52525b"/><rect x="10" y="11" width="2" height="1" fill="#a1a1aa"/><rect x="12" y="11" width="1" height="1" fill="#18181b"/><rect x="13" y="11" width="1" height="1" fill="#52525b"/><rect x="14" y="11" width="1" height="1" fill="#fef08a"/><rect x="15" y="11" width="1" height="1" fill="#fdba74"/><rect x="16" y="11" width="1" height="1" fill="#a1a1aa"/><rect x="17" y="11" width="1" height="1" fill="#d8b4fe"/><rect x="18" y="11" width="1" height="1" fill="#a1a1aa"/><rect x="19" y="11" width="1" height="1" fill="#fef08a"/><rect x="20" y="11" width="3" height="1" fill="#a1a1aa"/><rect x="23" y="11" width="5" height="1" fill="#52525b"/><rect x="28" y="11" width="4" height="1" fill="#a1a1aa"/><rect x="0" y="12" width="4" height="1" fill="#f4f4f5"/><rect x="4" y="12" width="1" height="1" fill="#93c5fd"/><rect x="5" y="12" width="1" height="1" fill="#52525b"/><rect x="6" y="12" width="3" height="1" fill="#a1a1aa"/><rect x="9" y="12" width="1" height="1" fill="#52525b"/><rect x="10" y="12" width="1" height="1" fill="#fdba74"/><rect x="11" y="12" width="1" height="1" fill="#fef08a"/><rect x="12" y="12" width="1" height="1" fill="#52525b"/><rect x="13" y="12" width="1" height="1" fill="#000000"/><rect x="14" y="12" width="1" height="1" fill="#27272a"/><rect x="15" y="12" width="1" height="1" fill="#52525b"/><rect x="16" y="12" width="7" height="1" fill="#a1a1aa"/><rect x="23" y="12" width="5" height="1" fill="#52525b"/><rect x="28" y="12" width="4" height="1" fill="#a1a1aa"/><rect x="0" y="13" width="4" height="1" fill="#f4f4f5"/><rect x="4" y="13" width="1" height="1" fill="#93c5fd"/><rect x="5" y="13" width="1" height="1" fill="#52525b"/><rect x="6" y="13" width="2" height="1" fill="#a1a1aa"/><rect x="8" y="13" width="2" height="1" fill="#52525b"/><rect x="10" y="13" width="2" height="1" fill="#fef08a"/><rect x="12" y="13" width="1" height="1" fill="#fdba74"/><rect x="13" y="13" width="1" height="1" fill="#27272a"/><rect x="14" y="13" width="1" height="1" fill="#000000"/><rect x="15" y="13" width="1" height="1" fill="#18181b"/><rect x="16" y="13" width="3" height="1" fill="#52525b"/><rect x="19" y="13" width="1" height="1" fill="#18181b"/><rect x="20" y="13" width="3" height="1" fill="#a1a1aa"/><rect x="23" y="13" width="5" height="1" fill="#52525b"/><rect x="28" y="13" width="4" height="1" fill="#a1a1aa"/><rect x="0" y="14" width="4" height="1" fill="#f4f4f5"/><rect x="4" y="14" width="1" height="1" fill="#93c5fd"/><rect x="5" y="14" width="3" height="1" fill="#52525b"/><rect x="8" y="14" width="1" height="1" fill="#27272a"/><rect x="9" y="14" width="1" height="1" fill="#a1a1aa"/><rect x="10" y="14" width="3" height="1" fill="#fef08a"/><rect x="13" y="14" width="1" height="1" fill="#a1a1aa"/><rect x="14" y="14" width="1" height="1" fill="#18181b"/><rect x="15" y="14" width="3" height="1" fill="#000000"/><rect x="18" y="14" width="1" height="1" fill="#18181b"/><rect x="19" y="14" width="1" height="1" fill="#52525b"/><rect x="20" y="14" width="3" height="1" fill="#a1a1aa"/><rect x="23" y="14" width="5" height="1" fill="#52525b"/><rect x="28" y="14" width="4" height="1" fill="#a1a1aa"/><rect x="0" y="15" width="4" height="1" fill="#f4f4f5"/><rect x="4" y="15" width="1" height="1" fill="#93c5fd"/><rect x="5" y="15" width="1" height="1" fill="#52525b"/><rect x="6" y="15" width="1" height="1" fill="#27272a"/><rect x="7" y="15" width="1" height="1" fill="#000000"/><rect x="8" y="15" width="1" height="1" fill="#18181b"/><rect x="9" y="15" width="1" height="1" fill="#a1a1aa"/><rect x="10" y="15" width="2" height="1" fill="#ffffff"/><rect x="12" y="15" width="1" height="1" fill="#f4f4f5"/><rect x="13" y="15" width="1" height="1" fill="#d8b4fe"/><rect x="14" y="15" width="1" height="1" fill="#52525b"/><rect x="15" y="15" width="3" height="1" fill="#000000"/><rect x="18" y="15" width="1" height="1" fill="#52525b"/><rect x="19" y="15" width="3" height="1" fill="#a1a1aa"/><rect x="22" y="15" width="6" height="1" fill="#52525b"/><rect x="28" y="15" width="4" height="1" fill="#a1a1aa"/><rect x="0" y="16" width="4" height="1" fill="#f4f4f5"/><rect x="4" y="16" width="1" height="1" fill="#a1a1aa"/><rect x="5" y="16" width="4" height="1" fill="#000000"/><rect x="9" y="16" width="1" height="1" fill="#27272a"/><rect x="10" y="16" width="5" height="1" fill="#ffffff"/><rect x="15" y="16" width="1" height="1" fill="#a1a1aa"/><rect x="16" y="16" width="2" height="1" fill="#52525b"/><rect x="18" y="16" width="1" height="1" fill="#fdba74"/><rect x="19" y="16" width="1" height="1" fill="#52525b"/><rect x="20" y="16" width="2" height="1" fill="#a1a1aa"/><rect x="22" y="16" width="6" height="1" fill="#52525b"/><rect x="28" y="16" width="4" height="1" fill="#a1a1aa"/><rect x="0" y="17" width="2" height="1" fill="#f4f4f5"/><rect x="2" y="17" width="1" height="1" fill="#a1a1aa"/><rect x="3" y="17" width="1" height="1" fill="#52525b"/><rect x="4" y="17" width="6" height="1" fill="#000000"/><rect x="10" y="17" width="1" height="1" fill="#a1a1aa"/><rect x="11" y="17" width="5" height="1" fill="#ffffff"/><rect x="16" y="17" width="1" height="1" fill="#d8b4fe"/><rect x="17" y="17" width="1" height="1" fill="#a1a1aa"/><rect x="18" y="17" width="2" height="1" fill="#52525b"/><rect x="20" y="17" width="2" height="1" fill="#a1a1aa"/><rect x="22" y="17" width="6" height="1" fill="#52525b"/><rect x="28" y="17" width="4" height="1" fill="#a1a1aa"/><rect x="0" y="18" width="1" height="1" fill="#a1a1aa"/><rect x="1" y="18" width="1" height="1" fill="#52525b"/><rect x="2" y="18" width="9" height="1" fill="#000000"/><rect x="11" y="18" width="1" height="1" fill="#a1a1aa"/><rect x="12" y="18" width="4" height="1" fill="#ffffff"/><rect x="16" y="18" width="1" height="1" fill="#f4f4f5"/><rect x="17" y="18" width="1" height="1" fill="#18181b"/><rect x="18" y="18" width="1" height="1" fill="#000000"/><rect x="19" y="18" width="9" height="1" fill="#52525b"/><rect x="28" y="18" width="4" height="1" fill="#a1a1aa"/><rect x="0" y="19" width="11" height="1" fill="#000000"/><rect x="11" y="19" width="1" height="1" fill="#18181b"/><rect x="12" y="19" width="1" height="1" fill="#a1a1aa"/><rect x="13" y="19" width="3" height="1" fill="#ffffff"/><rect x="16" y="19" width="1" height="1" fill="#52525b"/><rect x="17" y="19" width="2" height="1" fill="#000000"/><rect x="19" y="19" width="1" height="1" fill="#52525b"/><rect x="20" y="19" width="1" height="1" fill="#000000"/><rect x="21" y="19" width="7" height="1" fill="#52525b"/><rect x="28" y="19" width="4" height="1" fill="#a1a1aa"/><rect x="0" y="20" width="12" height="1" fill="#000000"/><rect x="12" y="20" width="1" height="1" fill="#52525b"/><rect x="13" y="20" width="1" height="1" fill="#a1a1aa"/><rect x="14" y="20" width="1" height="1" fill="#ffffff"/><rect x="15" y="20" width="1" height="1" fill="#f4f4f5"/><rect x="16" y="20" width="1" height="1" fill="#52525b"/><rect x="17" y="20" width="2" height="1" fill="#000000"/><rect x="19" y="20" width="1" height="1" fill="#52525b"/><rect x="20" y="20" width="1" height="1" fill="#27272a"/><rect x="21" y="20" width="1" height="1" fill="#000000"/><rect x="22" y="20" width="6" height="1" fill="#52525b"/><rect x="28" y="20" width="4" height="1" fill="#a1a1aa"/><rect x="0" y="21" width="12" height="1" fill="#000000"/><rect x="12" y="21" width="1" height="1" fill="#18181b"/><rect x="13" y="21" width="1" height="1" fill="#52525b"/><rect x="14" y="21" width="1" height="1" fill="#a1a1aa"/><rect x="15" y="21" width="1" height="1" fill="#d8b4fe"/><rect x="16" y="21" width="1" height="1" fill="#a1a1aa"/><rect x="17" y="21" width="1" height="1" fill="#52525b"/><rect x="18" y="21" width="1" height="1" fill="#000000"/><rect x="19" y="21" width="2" height="1" fill="#52525b"/><rect x="21" y="21" width="2" height="1" fill="#000000"/><rect x="23" y="21" width="5" height="1" fill="#52525b"/><rect x="28" y="21" width="4" height="1" fill="#a1a1aa"/><rect x="0" y="22" width="13" height="1" fill="#000000"/><rect x="13" y="22" width="1" height="1" fill="#18181b"/><rect x="14" y="22" width="1" height="1" fill="#a1a1aa"/><rect x="15" y="22" width="2" height="1" fill="#f4f4f5"/><rect x="17" y="22" width="1" height="1" fill="#a1a1aa"/><rect x="18" y="22" width="2" height="1" fill="#18181b"/><rect x="20" y="22" width="1" height="1" fill="#d8b4fe"/><rect x="21" y="22" width="1" height="1" fill="#18181b"/><rect x="22" y="22" width="1" height="1" fill="#000000"/><rect x="23" y="22" width="1" height="1" fill="#18181b"/><rect x="24" y="22" width="4" height="1" fill="#52525b"/><rect x="28" y="22" width="4" height="1" fill="#a1a1aa"/><rect x="0" y="23" width="14" height="1" fill="#000000"/><rect x="14" y="23" width="1" height="1" fill="#a1a1aa"/><rect x="15" y="23" width="1" height="1" fill="#d8b4fe"/><rect x="16" y="23" width="2" height="1" fill="#f4f4f5"/><rect x="18" y="23" width="1" height="1" fill="#27272a"/><rect x="19" y="23" width="1" height="1" fill="#18181b"/><rect x="20" y="23" width="1" height="1" fill="#f4f4f5"/><rect x="21" y="23" width="1" height="1" fill="#52525b"/><rect x="22" y="23" width="3" height="1" fill="#000000"/><rect x="25" y="23" width="2" height="1" fill="#52525b"/><rect x="27" y="23" width="1" height="1" fill="#3b82f6"/><rect x="28" y="23" width="4" height="1" fill="#a1a1aa"/><rect x="0" y="24" width="14" height="1" fill="#000000"/><rect x="14" y="24" width="1" height="1" fill="#27272a"/><rect x="15" y="24" width="3" height="1" fill="#f4f4f5"/><rect x="18" y="24" width="1" height="1" fill="#52525b"/><rect x="19" y="24" width="1" height="1" fill="#000000"/><rect x="20" y="24" width="1" height="1" fill="#a1a1aa"/><rect x="21" y="24" width="1" height="1" fill="#52525b"/><rect x="22" y="24" width="4" height="1" fill="#000000"/><rect x="26" y="24" width="1" height="1" fill="#52525b"/><rect x="27" y="24" width="1" height="1" fill="#3b82f6"/><rect x="28" y="24" width="4" height="1" fill="#a1a1aa"/><rect x="0" y="25" width="15" height="1" fill="#000000"/><rect x="15" y="25" width="1" height="1" fill="#a1a1aa"/><rect x="16" y="25" width="2" height="1" fill="#f4f4f5"/><rect x="18" y="25" width="1" height="1" fill="#52525b"/><rect x="19" y="25" width="1" height="1" fill="#000000"/><rect x="20" y="25" width="1" height="1" fill="#52525b"/><rect x="21" y="25" width="1" height="1" fill="#a1a1aa"/><rect x="22" y="25" width="5" height="1" fill="#000000"/><rect x="27" y="25" width="1" height="1" fill="#52525b"/><rect x="28" y="25" width="4" height="1" fill="#a1a1aa"/><rect x="0" y="26" width="15" height="1" fill="#000000"/><rect x="15" y="26" width="1" height="1" fill="#18181b"/><rect x="16" y="26" width="2" height="1" fill="#a1a1aa"/><rect x="18" y="26" width="1" height="1" fill="#d8b4fe"/><rect x="19" y="26" width="1" height="1" fill="#000000"/><rect x="20" y="26" width="1" height="1" fill="#52525b"/><rect x="21" y="26" width="1" height="1" fill="#a1a1aa"/><rect x="22" y="26" width="6" height="1" fill="#000000"/><rect x="28" y="26" width="1" height="1" fill="#52525b"/><rect x="29" y="26" width="3" height="1" fill="#a1a1aa"/><rect x="0" y="27" width="16" height="1" fill="#000000"/><rect x="16" y="27" width="1" height="1" fill="#a1a1aa"/><rect x="17" y="27" width="2" height="1" fill="#f4f4f5"/><rect x="19" y="27" width="1" height="1" fill="#18181b"/><rect x="20" y="27" width="1" height="1" fill="#27272a"/><rect x="21" y="27" width="1" height="1" fill="#52525b"/><rect x="22" y="27" width="7" height="1" fill="#000000"/><rect x="29" y="27" width="3" height="1" fill="#a1a1aa"/><rect x="0" y="28" width="16" height="1" fill="#000000"/><rect x="16" y="28" width="1" height="1" fill="#27272a"/><rect x="17" y="28" width="2" height="1" fill="#f4f4f5"/><rect x="19" y="28" width="1" height="1" fill="#18181b"/><rect x="20" y="28" width="1" height="1" fill="#000000"/><rect x="21" y="28" width="1" height="1" fill="#52525b"/><rect x="22" y="28" width="7" height="1" fill="#000000"/><rect x="29" y="28" width="1" height="1" fill="#18181b"/><rect x="30" y="28" width="2" height="1" fill="#a1a1aa"/><rect x="0" y="29" width="17" height="1" fill="#000000"/><rect x="17" y="29" width="1" height="1" fill="#a1a1aa"/><rect x="18" y="29" width="1" height="1" fill="#f4f4f5"/><rect x="19" y="29" width="1" height="1" fill="#18181b"/><rect x="20" y="29" width="1" height="1" fill="#000000"/><rect x="21" y="29" width="1" height="1" fill="#27272a"/><rect x="22" y="29" width="2" height="1" fill="#000000"/><rect x="24" y="29" width="1" height="1" fill="#27272a"/><rect x="25" y="29" width="1" height="1" fill="#52525b"/><rect x="26" y="29" width="4" height="1" fill="#000000"/><rect x="30" y="29" width="1" height="1" fill="#52525b"/><rect x="31" y="29" width="1" height="1" fill="#a1a1aa"/><rect x="0" y="30" width="17" height="1" fill="#000000"/><rect x="17" y="30" width="1" height="1" fill="#27272a"/><rect x="18" y="30" width="1" height="1" fill="#f4f4f5"/><rect x="19" y="30" width="1" height="1" fill="#18181b"/><rect x="20" y="30" width="4" height="1" fill="#000000"/><rect x="24" y="30" width="1" height="1" fill="#18181b"/><rect x="25" y="30" width="1" height="1" fill="#52525b"/><rect x="26" y="30" width="4" height="1" fill="#000000"/><rect x="30" y="30" width="1" height="1" fill="#27272a"/><rect x="31" y="30" width="1" height="1" fill="#a1a1aa"/><rect x="0" y="31" width="18" height="1" fill="#000000"/><rect x="18" y="31" width="1" height="1" fill="#a1a1aa"/><rect x="19" y="31" width="1" height="1" fill="#18181b"/><rect x="20" y="31" width="11" height="1" fill="#000000"/><rect x="31" y="31" width="1" height="1" fill="#a1a1aa"/></svg>