<svg xmlns="http://www.w3.org/2000/svg" viewBox="0 0 32 32" shape-rendering="crispEdges"><rect x="13" y="2" width="1" height="1" fill="#374151"/><rect x="14" y="2" width="5" height="1" fill="#090d16"/><rect x="19" y="2" width="1" height="1" fill="#374151"/><rect x="12" y="3" width="1" height="1" fill="#374151"/><rect x="13" y="3" width="7" height="1" fill="#090d16"/><rect x="20" y="3" width="1" height="1" fill="#374151"/><rect x="11" y="4" width="1" height="1" fill="#374151"/><rect x="12" y="4" width="9" height="1" fill="#090d16"/><rect x="21" y="4" width="1" height="1" fill="#374151"/><rect x="10" y="5" width="1" height="1" fill="#374151"/><rect x="11" y="5" width="11" height="1" fill="#090d16"/><rect x="22" y="5" width="1" height="1" fill="#374151"/><rect x="10" y="6" width="1" height="1" fill="#374151"/><rect x="11" y="6" width="11" height="1" fill="#090d16"/><rect x="22" y="6" width="1" height="1" fill="#374151"/><rect x="9" y="7" width="1" height="1" fill="#374151"/><rect x="10" y="7" width="13" height="1" fill="#090d16"/><rect x="23" y="7" width="1" height="1" fill="#374151"/><rect x="8" y="8" width="1" height="1" fill="#374151"/><rect x="9" y="8" width="7" height="1" fill="#090d16"/><rect x="16" y="8" width="1" height="1" fill="#a84ee0"/><rect x="17" y="8" width="7" height="1" fill="#090d16"/><rect x="24" y="8" width="1" height="1" fill="#374151"/><rect x="7" y="9" width="1" height="1" fill="#374151"/><rect x="8" y="9" width="7" height="1" fill="#090d16"/><rect x="15" y="9" width="3" height="1" fill="#a84ee0"/><rect x="18" y="9" width="7" height="1" fill="#090d16"/><rect x="25" y="9" width="1" height="1" fill="#374151"/><rect x="6" y="10" width="1" height="1" fill="#374151"/><rect x="7" y="10" width="7" height="1" fill="#090d16"/><rect x="14" y="10" width="5" height="1" fill="#a84ee0"/><rect x="19" y="10" width="7" height="1" fill="#090d16"/><rect x="26" y="10" width="1" height="1" fill="#374151"/><rect x="6" y="11" width="1" height="1" fill="#374151"/><rect x="7" y="11" width="7" height="1" fill="#090d16"/><rect x="14" y="11" width="5" height="1" fill="#a84ee0"/><rect x="19" y="11" width="7" height="1" fill="#090d16"/><rect x="26" y="11" width="1" height="1" fill="#374151"/><rect x="5" y="12" width="1" height="1" fill="#374151"/><rect x="6" y="12" width="7" height="1" fill="#090d16"/><rect x="13" y="12" width="7" height="1" fill="#a84ee0"/><rect x="20" y="12" width="7" height="1" fill="#090d16"/><rect x="27" y="12" width="1" height="1" fill="#374151"/><rect x="4" y="13" width="1" height="1" fill="#374151"/><rect x="5" y="13" width="7" height="1" fill="#090d16"/><rect x="12" y="13" width="2" height="1" fill="#a84ee0"/><rect x="14" y="13" width="1" height="1" fill="#090d16"/><rect x="15" y="13" width="3" height="1" fill="#a84ee0"/><rect x="18" y="13" width="1" height="1" fill="#090d16"/><rect x="19" y="13" width="2" height="1" fill="#a84ee0"/><rect x="21" y="13" width="7" height="1" fill="#090d16"/><rect x="28" y="13" width="1" height="1" fill="#374151"/><rect x="3" y="14" width="1" height="1" fill="#374151"/><rect x="4" y="14" width="7" height="1" fill="#090d16"/><rect x="11" y="14" width="11" height="1" fill="#a84ee0"/><rect x="22" y="14" width="7" height="1" fill="#090d16"/><rect x="29" y="14" width="1" height="1" fill="#374151"/><rect x="2" y="15" width="1" height="1" fill="#374151"/><rect x="3" y="15" width="7" height="1" fill="#090d16"/><rect x="10" y="15" width="13" height="1" fill="#a84ee0"/><rect x="23" y="15" width="7" height="1" fill="#090d16"/><rect x="30" y="15" width="1" height="1" fill="#374151"/><rect x="3" y="16" width="1" height="1" fill="#374151"/><rect x="4" y="16" width="7" height="1" fill="#090d16"/><rect x="11" y="16" width="11" height="1" fill="#a84ee0"/><rect x="22" y="16" width="7" height="1" fill="#090d16"/><rect x="29" y="16" width="1" height="1" fill="#374151"/><rect x="4" y="17" width="1" height="1" fill="#374151"/><rect x="5" y="17" width="7" height="1" fill="#090d16"/><rect x="12" y="17" width="3" height="1" fill="#a84ee0"/><rect x="15" y="17" width="1" height="1" fill="#4b126f"/><rect x="16" y="17" width="1" height="1" fill="#a84ee0"/><rect x="17" y="17" width="1" height="1" fill="#4b126f"/><rect x="18" y="17" width="3" height="1" fill="#a84ee0"/><rect x="21" y="17" width="7" height="1" fill="#090d16"/><rect x="28" y="17" width="1" height="1" fill="#374151"/><rect x="5" y="18" width="1" height="1" fill="#374151"/><rect x="6" y="18" width="7" height="1" fill="#090d16"/><rect x="13" y="18" width="7" height="1" fill="#a84ee0"/><rect x="20" y="18" width="7" height="1" fill="#090d16"/><rect x="27" y="18" width="1" height="1" fill="#374151"/><rect x="6" y="19" width="1" height="1" fill="#374151"/><rect x="7" y="19" width="7" height="1" fill="#090d16"/><rect x="14" y="19" width="5" height="1" fill="#a84ee0"/><rect x="19" y="19" width="7" height="1" fill="#090d16"/><rect x="26" y="19" width="1" height="1" fill="#374151"/><rect x="6" y="20" width="1" height="1" fill="#374151"/><rect x="7" y="20" width="7" height="1" fill="#090d16"/><rect x="14" y="20" width="5" height="1" fill="#a84ee0"/><rect x="19" y="20" width="7" height="1" fill="#090d16"/><rect x="26" y="20" width="1" height="1" fill="#374151"/><rect x="7" y="21" width="1" height="1" fill="#374151"/><rect x="8" y="21" width="7" height="1" fill="#090d16"/><rect x="15" y="21" width="3" height="1" fill="#a84ee0"/><rect x="18" y="21" width="7" height="1" fill="#090d16"/><rect x="25" y="21" width="1" height="1" fill="#374151"/><rect x="8" y="22" width="1" height="1" fill="#374151"/><rect x="9" y="22" width="7" height="1" fill="#090d16"/><rect x="16" y="22" width="1" height="1" fill="#a84ee0"/><rect x="17" y="22" width="7" height="1" fill="#090d16"/><rect x="24" y="22" width="1" height="1" fill="#374151"/><rect x="9" y="23" width="1" height="1" fill="#374151"/><rect x="10" y="23" width="13" height="1" fill="#090d16"/><rect x="23" y="23" width="1" height="1" fill="#374151"/><rect x="10" y="24" width="1" height="1" fill="#374151"/><rect x="11" y="24" width="11" height="1" fill="#090d16"/><rect x="22" y="24" width="1" height="1" fill="#374151"/><rect x="10" y="25" width="1" height="1" fill="#374151"/><rect x="11" y="25" width="11" height="1" fill="#090d16"/><rect x="22" y="25" width="1" height="1" fill="#374151"/><rect x="11" y="26" width="1" height="1" fill="#374151"/><rect x="12" y="26" width="9" height="1" fill="#090d16"/><rect x="21" y="26" width="1" height="1" fill="#374151"/><rect x="12" y="27" width="1" height="1" fill="#374151"/><rect x="13" y="27" width="7" height="1" fill="#090d16"/><rect x="20" y="27" width="1" height="1" fill="#374151"/><rect x="13" y="28" width="1" height="1" fill="#374151"/><rect x="14" y="28" width="5" height="1" fill="#090d16"/><rect x="19" y="28" width="1" height="1" fill="#374151"/><rect x="14" y="29" width="1" height="1" fill="#374151"/><rect x="15" y="29" width="3" height="1" fill="#090d16"/><rect x="18" y="29" width="1" height="1" fill="#374151"/></svg>