<svg xmlns="http://www.w3.org/2000/svg" viewBox="0 0 32 32" shape-rendering="crispEdges"><rect x="0" y="0" width="1" height="1" fill="#dc2626"/><rect x="1" y="0" width="1" height="1" fill="#334155"/><rect x="2" y="0" width="3" height="1" fill="#dc2626"/><rect x="5" y="0" width="4" height="1" fill="#f97316"/><rect x="9" y="0" width="1" height="1" fill="#cbd5e1"/><rect x="10" y="0" width="13" height="1" fill="#f8fafc"/><rect x="23" y="0" width="5" height="1" fill="#cbd5e1"/><rect x="28" y="0" width="4" height="1" fill="#f59e0b"/><rect x="0" y="1" width="1" height="1" fill="#ec4899"/><rect x="1" y="1" width="3" height="1" fill="#f97316"/><rect x="4" y="1" width="1" height="1" fill="#ec4899"/><rect x="5" y="1" width="4" height="1" fill="#f97316"/><rect x="9" y="1" width="1" height="1" fill="#fbcfe8"/><rect x="10" y="1" width="13" height="1" fill="#f8fafc"/><rect x="23" y="1" width="1" height="1" fill="#fbcfe8"/><rect x="24" y="1" width="2" height="1" fill="#f97316"/><rect x="26" y="1" width="2" height="1" fill="#f59e0b"/><rect x="28" y="1" width="4" height="1" fill="#f97316"/><rect x="0" y="2" width="9" height="1" fill="#dc2626"/><rect x="9" y="2" width="1" height="1" fill="#cbd5e1"/><rect x="10" y="2" width="13" height="1" fill="#f8fafc"/><rect x="23" y="2" width="1" height="1" fill="#cbd5e1"/><rect x="24" y="2" width="2" height="1" fill="#64748b"/><rect x="26" y="2" width="2" height="1" fill="#f59e0b"/><rect x="28" y="2" width="1" height="1" fill="#f97316"/><rect x="29" y="2" width="3" height="1" fill="#dc2626"/><rect x="0" y="3" width="1" height="1" fill="#dc2626"/><rect x="1" y="3" width="8" height="1" fill="#334155"/><rect x="9" y="3" width="1" height="1" fill="#cbd5e1"/><rect x="10" y="3" width="13" height="1" fill="#f8fafc"/><rect x="23" y="3" width="3" height="1" fill="#64748b"/><rect x="26" y="3" width="1" height="1" fill="#f59e0b"/><rect x="27" y="3" width="1" height="1" fill="#fde047"/><rect x="28" y="3" width="1" height="1" fill="#64748b"/><rect x="29" y="3" width="3" height="1" fill="#dc2626"/><rect x="0" y="4" width="2" height="1" fill="#64748b"/><rect x="2" y="4" width="1" height="1" fill="#334155"/><rect x="3" y="4" width="7" height="1" fill="#64748b"/><rect x="10" y="4" width="12" height="1" fill="#f8fafc"/><rect x="22" y="4" width="1" height="1" fill="#cbd5e1"/><rect x="23" y="4" width="3" height="1" fill="#64748b"/><rect x="26" y="4" width="1" height="1" fill="#f97316"/><rect x="27" y="4" width="1" height="1" fill="#fde047"/><rect x="28" y="4" width="1" height="1" fill="#64748b"/><rect x="29" y="4" width="3" height="1" fill="#dc2626"/><rect x="0" y="5" width="3" height="1" fill="#dc2626"/><rect x="3" y="5" width="3" height="1" fill="#64748b"/><rect x="6" y="5" width="1" height="1" fill="#cbd5e1"/><rect x="7" y="5" width="1" height="1" fill="#64748b"/><rect x="8" y="5" width="2" height="1" fill="#dc2626"/><rect x="10" y="5" width="1" height="1" fill="#64748b"/><rect x="11" y="5" width="1" height="1" fill="#cbd5e1"/><rect x="12" y="5" width="9" height="1" fill="#f8fafc"/><rect x="21" y="5" width="1" height="1" fill="#cbd5e1"/><rect x="22" y="5" width="1" height="1" fill="#dc2626"/><rect x="23" y="5" width="4" height="1" fill="#64748b"/><rect x="27" y="5" width="1" height="1" fill="#fde047"/><rect x="28" y="5" width="1" height="1" fill="#64748b"/><rect x="29" y="5" width="3" height="1" fill="#dc2626"/><rect x="0" y="6" width="5" height="1" fill="#64748b"/><rect x="5" y="6" width="1" height="1" fill="#f97316"/><rect x="6" y="6" width="1" height="1" fill="#64748b"/><rect x="7" y="6" width="5" height="1" fill="#dc2626"/><rect x="12" y="6" width="1" height="1" fill="#64748b"/><rect x="13" y="6" width="1" height="1" fill="#cbd5e1"/><rect x="14" y="6" width="4" height="1" fill="#f8fafc"/><rect x="18" y="6" width="2" height="1" fill="#cbd5e1"/><rect x="20" y="6" width="7" height="1" fill="#64748b"/><rect x="27" y="6" width="1" height="1" fill="#f97316"/><rect x="28" y="6" width="1" height="1" fill="#64748b"/><rect x="29" y="6" width="1" height="1" fill="#ec4899"/><rect x="30" y="6" width="2" height="1" fill="#dc2626"/><rect x="0" y="7" width="6" height="1" fill="#dc2626"/><rect x="6" y="7" width="8" height="1" fill="#ec4899"/><rect x="14" y="7" width="1" height="1" fill="#dc2626"/><rect x="15" y="7" width="2" height="1" fill="#ec4899"/><rect x="17" y="7" width="8" height="1" fill="#dc2626"/><rect x="25" y="7" width="1" height="1" fill="#334155"/><rect x="26" y="7" width="3" height="1" fill="#64748b"/><rect x="29" y="7" width="3" height="1" fill="#dc2626"/><rect x="0" y="8" width="19" height="1" fill="#64748b"/><rect x="19" y="8" width="8" height="1" fill="#334155"/><rect x="27" y="8" width="2" height="1" fill="#64748b"/><rect x="29" y="8" width="1" height="1" fill="#334155"/><rect x="30" y="8" width="1" height="1" fill="#ec4899"/><rect x="31" y="8" width="1" height="1" fill="#dc2626"/><rect x="0" y="9" width="19" height="1" fill="#64748b"/><rect x="19" y="9" width="9" height="1" fill="#334155"/><rect x="28" y="9" width="2" height="1" fill="#64748b"/><rect x="30" y="9" width="2" height="1" fill="#ec4899"/><rect x="0" y="10" width="25" height="1" fill="#64748b"/><rect x="25" y="10" width="5" height="1" fill="#334155"/><rect x="30" y="10" width="1" height="1" fill="#dc2626"/><rect x="31" y="10" width="1" height="1" fill="#ec4899"/><rect x="0" y="11" width="23" height="1" fill="#64748b"/><rect x="23" y="11" width="3" height="1" fill="#ec4899"/><rect x="26" y="11" width="5" height="1" fill="#64748b"/><rect x="31" y="11" width="1" height="1" fill="#ec4899"/><rect x="0" y="12" width="23" height="1" fill="#64748b"/><rect x="23" y="12" width="3" height="1" fill="#ec4899"/><rect x="26" y="12" width="1" height="1" fill="#64748b"/><rect x="27" y="12" width="5" height="1" fill="#ec4899"/><rect x="0" y="13" width="1" height="1" fill="#cbd5e1"/><rect x="1" y="13" width="18" height="1" fill="#64748b"/><rect x="19" y="13" width="1" height="1" fill="#cbd5e1"/><rect x="20" y="13" width="3" height="1" fill="#64748b"/><rect x="23" y="13" width="3" height="1" fill="#fbcfe8"/><rect x="26" y="13" width="1" height="1" fill="#cbd5e1"/><rect x="27" y="13" width="1" height="1" fill="#f59e0b"/><rect x="28" y="13" width="3" height="1" fill="#fbcfe8"/><rect x="31" y="13" width="1" height="1" fill="#64748b"/><rect x="0" y="14" width="19" height="1" fill="#cbd5e1"/><rect x="19" y="14" width="1" height="1" fill="#f8fafc"/><rect x="20" y="14" width="3" height="1" fill="#cbd5e1"/><rect x="23" y="14" width="3" height="1" fill="#fbcfe8"/><rect x="26" y="14" width="2" height="1" fill="#cbd5e1"/><rect x="28" y="14" width="3" height="1" fill="#fbcfe8"/><rect x="31" y="14" width="1" height="1" fill="#cbd5e1"/><rect x="0" y="15" width="5" height="1" fill="#cbd5e1"/><rect x="5" y="15" width="1" height="1" fill="#f8fafc"/><rect x="6" y="15" width="17" height="1" fill="#cbd5e1"/><rect x="23" y="15" width="2" height="1" fill="#fbcfe8"/><rect x="25" y="15" width="3" height="1" fill="#cbd5e1"/><rect x="28" y="15" width="1" height="1" fill="#fbcfe8"/><rect x="29" y="15" width="3" height="1" fill="#cbd5e1"/><rect x="0" y="16" width="11" height="1" fill="#cbd5e1"/><rect x="11" y="16" width="2" height="1" fill="#fde047"/><rect x="13" y="16" width="2" height="1" fill="#cbd5e1"/><rect x="15" y="16" width="1" height="1" fill="#64748b"/><rect x="16" y="16" width="6" height="1" fill="#cbd5e1"/><rect x="22" y="16" width="1" height="1" fill="#64748b"/><rect x="23" y="16" width="5" height="1" fill="#cbd5e1"/><rect x="28" y="16" width="1" height="1" fill="#f8fafc"/><rect x="29" y="16" width="1" height="1" fill="#334155"/><rect x="30" y="16" width="2" height="1" fill="#64748b"/><rect x="0" y="17" width="1" height="1" fill="#cbd5e1"/><rect x="1" y="17" width="1" height="1" fill="#f59e0b"/><rect x="2" y="17" width="8" height="1" fill="#cbd5e1"/><rect x="10" y="17" width="1" height="1" fill="#fbcfe8"/><rect x="11" y="17" width="1" height="1" fill="#f59e0b"/><rect x="12" y="17" width="1" height="1" fill="#cbd5e1"/><rect x="13" y="17" width="1" height="1" fill="#f59e0b"/><rect x="14" y="17" width="1" height="1" fill="#cbd5e1"/><rect x="15" y="17" width="1" height="1" fill="#64748b"/><rect x="16" y="17" width="6" height="1" fill="#cbd5e1"/><rect x="22" y="17" width="1" height="1" fill="#64748b"/><rect x="23" y="17" width="2" height="1" fill="#cbd5e1"/><rect x="25" y="17" width="1" height="1" fill="#64748b"/><rect x="26" y="17" width="3" height="1" fill="#cbd5e1"/><rect x="29" y="17" width="3" height="1" fill="#64748b"/><rect x="0" y="18" width="10" height="1" fill="#cbd5e1"/><rect x="10" y="18" width="1" height="1" fill="#fbcfe8"/><rect x="11" y="18" width="1" height="1" fill="#f59e0b"/><rect x="12" y="18" width="1" height="1" fill="#fbcfe8"/><rect x="13" y="18" width="4" height="1" fill="#cbd5e1"/><rect x="17" y="18" width="1" height="1" fill="#fbcfe8"/><rect x="18" y="18" width="1" height="1" fill="#cbd5e1"/><rect x="19" y="18" width="2" height="1" fill="#f8fafc"/><rect x="21" y="18" width="7" height="1" fill="#cbd5e1"/><rect x="28" y="18" width="3" height="1" fill="#64748b"/><rect x="31" y="18" width="1" height="1" fill="#cbd5e1"/><rect x="0" y="19" width="1" height="1" fill="#f97316"/><rect x="1" y="19" width="1" height="1" fill="#f59e0b"/><rect x="2" y="19" width="1" height="1" fill="#fbcfe8"/><rect x="3" y="19" width="4" height="1" fill="#cbd5e1"/><rect x="7" y="19" width="1" height="1" fill="#f8fafc"/><rect x="8" y="19" width="2" height="1" fill="#cbd5e1"/><rect x="10" y="19" width="4" height="1" fill="#fbcfe8"/><rect x="14" y="19" width="1" height="1" fill="#cbd5e1"/><rect x="15" y="19" width="1" height="1" fill="#fbcfe8"/><rect x="16" y="19" width="4" height="1" fill="#cbd5e1"/><rect x="20" y="19" width="1" height="1" fill="#f8fafc"/><rect x="21" y="19" width="1" height="1" fill="#cbd5e1"/><rect x="22" y="19" width="1" height="1" fill="#fbcfe8"/><rect x="23" y="19" width="5" height="1" fill="#cbd5e1"/><rect x="28" y="19" width="1" height="1" fill="#f8fafc"/><rect x="29" y="19" width="2" height="1" fill="#64748b"/><rect x="31" y="19" width="1" height="1" fill="#cbd5e1"/><rect x="0" y="20" width="2" height="1" fill="#fbcfe8"/><rect x="2" y="20" width="1" height="1" fill="#f97316"/><rect x="3" y="20" width="1" height="1" fill="#fbcfe8"/><rect x="4" y="20" width="1" height="1" fill="#cbd5e1"/><rect x="5" y="20" width="2" height="1" fill="#f8fafc"/><rect x="7" y="20" width="5" height="1" fill="#cbd5e1"/><rect x="12" y="20" width="1" height="1" fill="#fbcfe8"/><rect x="13" y="20" width="2" height="1" fill="#f59e0b"/><rect x="15" y="20" width="3" height="1" fill="#cbd5e1"/><rect x="18" y="20" width="1" height="1" fill="#f8fafc"/><rect x="19" y="20" width="6" height="1" fill="#cbd5e1"/><rect x="25" y="20" width="1" height="1" fill="#f8fafc"/><rect x="26" y="20" width="1" height="1" fill="#cbd5e1"/><rect x="27" y="20" width="1" height="1" fill="#f8fafc"/><rect x="28" y="20" width="1" height="1" fill="#cbd5e1"/><rect x="29" y="20" width="3" height="1" fill="#64748b"/><rect x="0" y="21" width="2" height="1" fill="#cbd5e1"/><rect x="2" y="21" width="1" height="1" fill="#f97316"/><rect x="3" y="21" width="1" height="1" fill="#fbcfe8"/><rect x="4" y="21" width="7" height="1" fill="#cbd5e1"/><rect x="11" y="21" width="1" height="1" fill="#f97316"/><rect x="12" y="21" width="3" height="1" fill="#ec4899"/><rect x="15" y="21" width="1" height="1" fill="#fbcfe8"/><rect x="16" y="21" width="1" height="1" fill="#64748b"/><rect x="17" y="21" width="6" height="1" fill="#cbd5e1"/><rect x="23" y="21" width="1" height="1" fill="#64748b"/><rect x="24" y="21" width="7" height="1" fill="#cbd5e1"/><rect x="31" y="21" width="1" height="1" fill="#64748b"/><rect x="0" y="22" width="1" height="1" fill="#f97316"/><rect x="1" y="22" width="2" height="1" fill="#f59e0b"/><rect x="3" y="22" width="1" height="1" fill="#fbcfe8"/><rect x="4" y="22" width="1" height="1" fill="#64748b"/><rect x="5" y="22" width="1" height="1" fill="#cbd5e1"/><rect x="6" y="22" width="2" height="1" fill="#f8fafc"/><rect x="8" y="22" width="2" height="1" fill="#cbd5e1"/><rect x="10" y="22" width="1" height="1" fill="#f59e0b"/><rect x="11" y="22" width="4" height="1" fill="#ec4899"/><rect x="15" y="22" width="8" height="1" fill="#cbd5e1"/><rect x="23" y="22" width="1" height="1" fill="#64748b"/><rect x="24" y="22" width="7" height="1" fill="#cbd5e1"/><rect x="31" y="22" width="1" height="1" fill="#334155"/><rect x="0" y="23" width="1" height="1" fill="#f97316"/><rect x="1" y="23" width="2" height="1" fill="#f59e0b"/><rect x="3" y="23" width="1" height="1" fill="#cbd5e1"/><rect x="4" y="23" width="2" height="1" fill="#64748b"/><rect x="6" y="23" width="2" height="1" fill="#f8fafc"/><rect x="8" y="23" width="2" height="1" fill="#cbd5e1"/><rect x="10" y="23" width="1" height="1" fill="#f59e0b"/><rect x="11" y="23" width="1" height="1" fill="#f97316"/><rect x="12" y="23" width="1" height="1" fill="#ec4899"/><rect x="13" y="23" width="1" height="1" fill="#f97316"/><rect x="14" y="23" width="1" height="1" fill="#ec4899"/><rect x="15" y="23" width="1" height="1" fill="#cbd5e1"/><rect x="16" y="23" width="1" height="1" fill="#64748b"/><rect x="17" y="23" width="2" height="1" fill="#cbd5e1"/><rect x="19" y="23" width="1" height="1" fill="#fbcfe8"/><rect x="20" y="23" width="9" height="1" fill="#cbd5e1"/><rect x="29" y="23" width="2" height="1" fill="#64748b"/><rect x="31" y="23" width="1" height="1" fill="#334155"/><rect x="0" y="24" width="1" height="1" fill="#f97316"/><rect x="1" y="24" width="1" height="1" fill="#f59e0b"/><rect x="2" y="24" width="2" height="1" fill="#cbd5e1"/><rect x="4" y="24" width="2" height="1" fill="#64748b"/><rect x="6" y="24" width="1" height="1" fill="#cbd5e1"/><rect x="7" y="24" width="1" height="1" fill="#f8fafc"/><rect x="8" y="24" width="2" height="1" fill="#cbd5e1"/><rect x="10" y="24" width="1" height="1" fill="#fde047"/><rect x="11" y="24" width="1" height="1" fill="#f97316"/><rect x="12" y="24" width="1" height="1" fill="#ec4899"/><rect x="13" y="24" width="1" height="1" fill="#f97316"/><rect x="14" y="24" width="1" height="1" fill="#ec4899"/><rect x="15" y="24" width="1" height="1" fill="#cbd5e1"/><rect x="16" y="24" width="1" height="1" fill="#64748b"/><rect x="17" y="24" width="7" height="1" fill="#cbd5e1"/><rect x="24" y="24" width="1" height="1" fill="#64748b"/><rect x="25" y="24" width="3" height="1" fill="#cbd5e1"/><rect x="28" y="24" width="2" height="1" fill="#64748b"/><rect x="30" y="24" width="1" height="1" fill="#334155"/><rect x="31" y="24" width="1" height="1" fill="#1e293b"/><rect x="0" y="25" width="1" height="1" fill="#dc2626"/><rect x="1" y="25" width="1" height="1" fill="#f59e0b"/><rect x="2" y="25" width="2" height="1" fill="#cbd5e1"/><rect x="4" y="25" width="2" height="1" fill="#64748b"/><rect x="6" y="25" width="3" height="1" fill="#cbd5e1"/><rect x="9" y="25" width="1" height="1" fill="#fde047"/><rect x="10" y="25" width="1" height="1" fill="#f59e0b"/><rect x="11" y="25" width="1" height="1" fill="#f97316"/><rect x="12" y="25" width="1" height="1" fill="#ec4899"/><rect x="13" y="25" width="1" height="1" fill="#f97316"/><rect x="14" y="25" width="1" height="1" fill="#ec4899"/><rect x="15" y="25" width="2" height="1" fill="#64748b"/><rect x="17" y="25" width="10" height="1" fill="#cbd5e1"/><rect x="27" y="25" width="2" height="1" fill="#64748b"/><rect x="29" y="25" width="1" height="1" fill="#cbd5e1"/><rect x="30" y="25" width="1" height="1" fill="#334155"/><rect x="31" y="25" width="1" height="1" fill="#1e293b"/><rect x="0" y="26" width="1" height="1" fill="#dc2626"/><rect x="1" y="26" width="1" height="1" fill="#f97316"/><rect x="2" y="26" width="2" height="1" fill="#cbd5e1"/><rect x="4" y="26" width="2" height="1" fill="#64748b"/><rect x="6" y="26" width="3" height="1" fill="#cbd5e1"/><rect x="9" y="26" width="1" height="1" fill="#fde047"/><rect x="10" y="26" width="2" height="1" fill="#f59e0b"/><rect x="12" y="26" width="5" height="1" fill="#ec4899"/><rect x="17" y="26" width="1" height="1" fill="#64748b"/><rect x="18" y="26" width="3" height="1" fill="#cbd5e1"/><rect x="21" y="26" width="1" height="1" fill="#64748b"/><rect x="22" y="26" width="3" height="1" fill="#cbd5e1"/><rect x="25" y="26" width="3" height="1" fill="#64748b"/><rect x="28" y="26" width="2" height="1" fill="#cbd5e1"/><rect x="30" y="26" width="1" height="1" fill="#64748b"/><rect x="31" y="26" width="1" height="1" fill="#334155"/><rect x="0" y="27" width="1" height="1" fill="#dc2626"/><rect x="1" y="27" width="1" height="1" fill="#f97316"/><rect x="2" y="27" width="5" height="1" fill="#cbd5e1"/><rect x="7" y="27" width="1" height="1" fill="#64748b"/><rect x="8" y="27" width="1" height="1" fill="#cbd5e1"/><rect x="9" y="27" width="1" height="1" fill="#fbcfe8"/><rect x="10" y="27" width="1" height="1" fill="#f59e0b"/><rect x="11" y="27" width="1" height="1" fill="#fbcfe8"/><rect x="12" y="27" width="5" height="1" fill="#ec4899"/><rect x="17" y="27" width="1" height="1" fill="#cbd5e1"/><rect x="18" y="27" width="1" height="1" fill="#64748b"/><rect x="19" y="27" width="1" height="1" fill="#cbd5e1"/><rect x="20" y="27" width="2" height="1" fill="#64748b"/><rect x="22" y="27" width="3" height="1" fill="#cbd5e1"/><rect x="25" y="27" width="3" height="1" fill="#64748b"/><rect x="28" y="27" width="3" height="1" fill="#cbd5e1"/><rect x="31" y="27" width="1" height="1" fill="#64748b"/><rect x="0" y="28" width="2" height="1" fill="#f97316"/><rect x="2" y="28" width="8" height="1" fill="#cbd5e1"/><rect x="10" y="28" width="1" height="1" fill="#f59e0b"/><rect x="11" y="28" width="1" height="1" fill="#fbcfe8"/><rect x="12" y="28" width="1" height="1" fill="#f97316"/><rect x="13" y="28" width="4" height="1" fill="#ec4899"/><rect x="17" y="28" width="1" height="1" fill="#cbd5e1"/><rect x="18" y="28" width="1" height="1" fill="#64748b"/><rect x="19" y="28" width="1" height="1" fill="#cbd5e1"/><rect x="20" y="28" width="2" height="1" fill="#64748b"/><rect x="22" y="28" width="1" height="1" fill="#cbd5e1"/><rect x="23" y="28" width="1" height="1" fill="#fbcfe8"/><rect x="24" y="28" width="1" height="1" fill="#cbd5e1"/><rect x="25" y="28" width="3" height="1" fill="#64748b"/><rect x="28" y="28" width="3" height="1" fill="#cbd5e1"/><rect x="31" y="28" width="1" height="1" fill="#64748b"/><rect x="0" y="29" width="1" height="1" fill="#f59e0b"/><rect x="1" y="29" width="1" height="1" fill="#fbcfe8"/><rect x="2" y="29" width="8" height="1" fill="#cbd5e1"/><rect x="10" y="29" width="1" height="1" fill="#f59e0b"/><rect x="11" y="29" width="2" height="1" fill="#fbcfe8"/><rect x="13" y="29" width="4" height="1" fill="#ec4899"/><rect x="17" y="29" width="1" height="1" fill="#cbd5e1"/><rect x="18" y="29" width="1" height="1" fill="#64748b"/><rect x="19" y="29" width="2" height="1" fill="#cbd5e1"/><rect x="21" y="29" width="1" height="1" fill="#64748b"/><rect x="22" y="29" width="1" height="1" fill="#cbd5e1"/><rect x="23" y="29" width="1" height="1" fill="#fbcfe8"/><rect x="24" y="29" width="1" height="1" fill="#cbd5e1"/><rect x="25" y="29" width="2" height="1" fill="#3b82f6"/><rect x="27" y="29" width="5" height="1" fill="#cbd5e1"/><rect x="0" y="30" width="1" height="1" fill="#f59e0b"/><rect x="1" y="30" width="2" height="1" fill="#fbcfe8"/><rect x="3" y="30" width="5" height="1" fill="#cbd5e1"/><rect x="8" y="30" width="1" height="1" fill="#64748b"/><rect x="9" y="30" width="1" height="1" fill="#cbd5e1"/><rect x="10" y="30" width="1" height="1" fill="#f59e0b"/><rect x="11" y="30" width="1" height="1" fill="#ec4899"/><rect x="12" y="30" width="1" height="1" fill="#fbcfe8"/><rect x="13" y="30" width="1" height="1" fill="#f97316"/><rect x="14" y="30" width="2" height="1" fill="#ec4899"/><rect x="16" y="30" width="1" height="1" fill="#fbcfe8"/><rect x="17" y="30" width="4" height="1" fill="#cbd5e1"/><rect x="21" y="30" width="2" height="1" fill="#64748b"/><rect x="23" y="30" width="1" height="1" fill="#f59e0b"/><rect x="24" y="30" width="1" height="1" fill="#64748b"/><rect x="25" y="30" width="1" height="1" fill="#3b82f6"/><rect x="26" y="30" width="6" height="1" fill="#cbd5e1"/><rect x="0" y="31" width="1" height="1" fill="#fbcfe8"/><rect x="1" y="31" width="1" height="1" fill="#f97316"/><rect x="2" y="31" width="1" height="1" fill="#fbcfe8"/><rect x="3" y="31" width="7" height="1" fill="#cbd5e1"/><rect x="10" y="31" width="1" height="1" fill="#f97316"/><rect x="11" y="31" width="1" height="1" fill="#ec4899"/><rect x="12" y="31" width="1" height="1" fill="#fbcfe8"/><rect x="13" y="31" width="1" height="1" fill="#f97316"/><rect x="14" y="31" width="2" height="1" fill="#ec4899"/><rect x="16" y="31" width="6" height="1" fill="#cbd5e1"/><rect x="22" y="31" width="1" height="1" fill="#64748b"/><rect x="23" y="31" width="1" height="1" fill="#cbd5e1"/><rect x="24" y="31" width="1" height="1" fill="#64748b"/><rect x="25" y="31" width="1" height="1" fill="#3b82f6"/><rect x="26" y="31" width="6" height="1" fill="#cbd5e1"/></svg>